<svg width="50" height="47" viewBox="0 0 50 47" fill="none" xmlns="http://www.w3.org/2000/svg">
<path d="M44.5385 10.0769H37.1538V5.15385C37.1538 2.43877 34.9459 0.230774 32.2308 0.230774H17.4615C14.7465 0.230774 12.5385 2.43877 12.5385 5.15385V10.0769H5.15385C2.43877 10.0769 0.230774 12.2849 0.230774 15V42.0769C0.230774 44.792 2.43877 47 5.15385 47H44.5385C47.2535 47 49.4615 44.792 49.4615 42.0769V15C49.4615 12.2849 47.2535 10.0769 44.5385 10.0769ZM32.2308 5.15385V10.0769H17.4615V5.15385H32.2308ZM15 15H44.5385V22.3846H5.15385V15H15ZM5.15385 42.0769V27.3077H19.9231V32.2308H29.7692V27.3077H44.5385L44.5409 42.0769H5.15385Z" fill="#828282"/>
</svg>
