<svg width="10" height="7" viewBox="0 0 10 7" fill="none" xmlns="http://www.w3.org/2000/svg">
<path d="M4.2056 6.47511C4.24765 6.53433 4.30391 6.58275 4.36954 6.6162C4.43517 6.64965 4.50821 6.66713 4.58235 6.66713C4.6565 6.66713 4.72953 6.64965 4.79516 6.6162C4.86079 6.58275 4.91705 6.53433 4.9591 6.47511L9.0841 0.697334C9.13185 0.630692 9.15985 0.552637 9.16506 0.471647C9.17027 0.390658 9.15249 0.309833 9.11366 0.237953C9.07482 0.166073 9.01642 0.105888 8.94478 0.063937C8.87315 0.0219858 8.79103 -0.000127264 8.70735 5.50957e-07H0.457353C0.373865 0.000334955 0.29205 0.0227324 0.220707 0.0647841C0.149364 0.106836 0.091192 0.166951 0.0524472 0.238664C0.0137024 0.310378 -0.00414937 0.390976 0.000811615 0.471792C0.0057726 0.552608 0.0333586 0.630584 0.0806031 0.697334L4.2056 6.47511Z" fill="#574160"/>
</svg>
