<svg width="21" height="21" viewBox="0 0 21 21" fill="none" xmlns="http://www.w3.org/2000/svg">
<path d="M3.23074 8.61539H6.46151V17.7692H3.23074V8.61539ZM14.0759 8.30308C14.9854 8.30846 16.149 8.75539 16.8597 9.47692C17.5969 10.3008 17.7692 11.2318 17.7692 12.3846V17.7692H14.5384V12.7669C14.5384 11.8515 14.1674 10.7364 12.9559 10.6992C12.2451 10.7105 11.7874 11.1192 11.4477 11.8085C11.3507 12.0346 11.3723 12.2882 11.3723 12.5408L11.3077 17.7692H8.07689V8.61539H11.3077L11.3723 9.81077C11.6058 9.42423 11.9154 9.08917 12.2823 8.82592C12.7992 8.45385 13.4028 8.31331 14.0759 8.30308ZM4.84612 4.22692C5.67535 4.23823 6.4992 4.88923 6.53151 5.88C6.55305 6.76362 5.78305 7.53308 4.82458 7.53308H4.80305C3.9792 7.53308 3.17151 6.86 3.13382 5.88C3.14997 5.00769 3.88228 4.249 4.84612 4.22692ZM-3.05176e-05 0V21H21V0H-3.05176e-05Z" fill="white"/>
</svg>
