<svg width="24" height="19" viewBox="0 0 24 19" fill="none" xmlns="http://www.w3.org/2000/svg">
<path d="M21.303 0.287842H5.18181C3.91169 0.287842 2.87878 1.32075 2.87878 2.59087V8.34845H5.18181V4.8939L12.5515 10.4212C12.7509 10.5705 12.9933 10.6512 13.2424 10.6512C13.4915 10.6512 13.7339 10.5705 13.9333 10.4212L21.303 4.8939V15.2575H12.0909V17.5606H21.303C22.5731 17.5606 23.6061 16.5277 23.6061 15.2575V2.59087C23.6061 1.32075 22.5731 0.287842 21.303 0.287842ZM13.2424 8.06057L5.94872 2.59087H20.5361L13.2424 8.06057Z" fill="white"/>
<path d="M0.575806 9.5H8.63641V11.803H0.575806V9.5ZM2.87884 12.9545H9.78793V15.2576H2.87884V12.9545ZM6.33338 16.4091H10.9394V18.7121H6.33338V16.4091Z" fill="white"/>
</svg>
