<svg width="938" height="577" viewBox="0 0 938 577" fill="none" xmlns="http://www.w3.org/2000/svg">
<g clip-path="url(#clip0)">
<path opacity="0.1" d="M938 370.593C938.016 386.227 936.125 401.803 932.369 416.978C931.106 422.092 929.638 427.098 927.965 431.999C925.919 438.048 923.548 443.983 920.861 449.776C919.508 452.707 918.077 455.579 916.569 458.393C916.594 474.425 913.293 490.287 906.877 504.977C895.278 531.335 874.595 552.647 848.597 565.029C832.343 572.785 814.579 576.864 796.569 576.976H178.064C150.545 577.035 123.502 569.805 99.6833 556.022L99.3169 555.815C95.9243 553.829 92.6167 551.726 89.394 549.507C82.143 544.497 75.3306 538.881 69.0304 532.718C60.503 524.384 52.9889 515.073 46.6439 504.977C31.7419 481.314 23.8476 453.912 23.8752 425.946C8.78371 399.465 -0.0163574 367.742 -0.0163574 333.654C-0.0163574 290.646 13.9682 251.414 36.9439 221.714C41.734 215.509 46.9808 209.671 52.6407 204.248C58.2253 198.882 64.2277 193.968 70.5913 189.554C75.6826 186.018 81.0036 182.825 86.519 179.996C88.8206 178.826 91.1301 177.719 93.4794 176.691C95.5421 175.775 97.6286 174.923 99.739 174.119C102.272 173.158 104.836 172.273 107.432 171.466C110.028 170.659 112.59 169.953 115.117 169.348C118.834 168.44 122.614 167.702 126.458 167.134C129.643 166.664 132.829 166.337 136.014 166.09C138.547 165.899 141.103 165.796 143.676 165.764H145.069C147.904 165.764 150.724 165.875 153.519 166.067C153.814 165.477 154.132 164.88 154.427 164.298C155.542 162.172 156.697 160.053 157.859 157.983C157.857 157.964 157.857 157.945 157.859 157.927C158.058 157.561 158.258 157.202 158.465 156.852C159.404 155.155 160.384 153.475 161.387 151.81C161.849 151.014 162.303 150.265 162.773 149.516C162.872 149.33 162.981 149.15 163.1 148.975C163.577 148.178 164.063 147.382 164.557 146.586C167.015 142.656 169.572 138.796 172.226 135.005L172.903 134.034C173.317 133.444 173.699 132.871 174.161 132.281C175.26 130.744 176.391 129.199 177.53 127.686C178.326 126.603 179.123 125.528 179.983 124.5C182.054 121.845 184.177 119.19 186.354 116.536C188.531 113.881 190.793 111.261 193.139 108.675C193.458 108.316 193.776 107.966 194.111 107.616L197.511 103.904C197.679 103.729 197.822 103.57 197.981 103.41C198.387 102.972 198.778 102.534 199.216 102.112C201.039 100.177 202.911 98.2812 204.79 96.3936C214.355 86.8661 224.545 77.9873 235.292 69.8163C235.714 69.4818 236.144 69.1632 236.566 68.8446C238.589 67.3234 240.644 65.8181 242.698 64.3367C254 56.2285 265.814 48.8593 278.066 42.2752C278.91 41.7894 279.77 41.3354 280.638 40.8894C291.622 35.0779 302.919 29.8771 314.477 25.311C320.776 22.8181 327.219 20.4765 333.701 18.3341C338.018 16.9164 342.35 15.5704 346.738 14.3041C353.598 12.3289 360.505 10.5582 367.46 8.99181C387.951 4.39382 408.796 1.55348 429.77 0.501716C436.141 0.177829 442.583 0.0105776 449.098 -4.16569e-05C480.531 -0.041659 511.842 3.91931 542.275 11.7873C542.59 12.2629 543.02 12.6506 543.526 12.9139C544.032 13.1772 544.596 13.3076 545.166 13.2926H547.842C549.005 13.6112 550.159 13.9298 551.322 14.2643C557.815 16.1333 564.216 18.1748 570.523 20.3889L572.116 20.9624C587.683 26.4984 602.83 33.1528 617.438 40.8735C630.606 47.8165 643.285 55.6505 655.386 64.3208C657.249 65.6588 659.086 67.0075 660.897 68.3667C663.095 66.9597 665.33 65.611 667.602 64.3208C676.378 59.3226 685.698 55.3489 695.38 52.4777C715.623 46.487 737.041 45.6492 757.69 50.0405C784.17 55.6555 808.141 69.5933 827.501 89.4167C835.384 97.5276 842.401 106.437 848.438 116.002C848.876 116.687 849.314 117.38 849.736 118.081C854.925 126.546 859.385 135.437 863.068 144.658C863.203 145.001 863.339 145.319 863.458 145.654C866.858 154.288 869.6 163.167 871.661 172.215C871.756 172.677 871.868 173.131 871.963 173.593C873.891 182.349 875.2 191.23 875.882 200.17C875.882 200.489 875.882 200.815 875.945 201.15C876.28 205.775 876.45 210.447 876.455 215.167C876.455 219.389 876.312 223.578 876.049 227.735C876.049 228.189 875.985 228.659 875.945 229.129C875.874 230.332 875.77 231.518 875.667 232.729C881.749 237.635 887.441 243.006 892.693 248.793C895.013 251.326 897.259 253.954 899.431 256.678C906.045 264.968 911.858 273.867 916.792 283.255C930.259 308.678 938 338.584 938 370.593Z" fill="#BB6BD9"/>
<path opacity="0.1" d="M848.008 562.083C848.008 567.522 829.269 572.62 796.57 577H178.064C150.546 577.059 123.502 569.829 99.6837 556.046L99.3174 555.838C108.715 552.414 125.678 549.22 148.765 546.337L149.8 546.209C160.153 544.943 171.725 543.74 184.371 542.602C184.69 542.602 185.017 542.554 185.335 542.514C195.37 541.622 206.044 540.786 217.358 540.005C217.716 540.005 218.067 539.941 218.425 539.925C222.789 539.612 227.244 539.315 231.788 539.033L233.54 538.922C266.63 536.867 304.244 535.226 345.035 534.143H345.082C350.795 533.984 356.569 533.843 362.404 533.721C368.892 533.567 375.459 533.432 382.106 533.315C387.179 533.203 392.316 533.124 397.469 533.044H397.588C420.835 532.694 444.854 532.519 469.414 532.519C530.147 532.519 587.55 533.626 638.415 535.617H638.559C646.379 535.919 654.056 536.254 661.542 536.596L667.914 536.899C676.361 537.303 684.59 537.735 692.602 538.197C786.814 543.557 848.008 552.262 848.008 562.083Z" fill="#BB6BD9"/>
<g opacity="0.2">
<path opacity="0.2" d="M541.766 528.863C541.74 529.722 541.642 530.577 541.471 531.42C535.928 530.538 530.354 529.742 524.747 529.03C524.747 528.807 524.747 528.576 524.747 528.345C524.799 525.957 525.486 523.626 526.738 521.591C528.379 518.995 530.871 517.37 533.619 517.458C536.366 517.546 538.748 519.322 540.221 522.006C541.335 524.114 541.868 526.481 541.766 528.863Z" fill="#3F3D56"/>
<path opacity="0.2" d="M542.224 515.253C542.418 509.094 538.763 503.98 534.059 503.831C529.355 503.683 525.384 508.555 525.189 514.715C524.995 520.874 528.65 525.988 533.354 526.137C538.058 526.285 542.029 521.413 542.224 515.253Z" fill="#3F3D56"/>
<path opacity="0.2" d="M542.658 501.618C542.853 495.458 539.197 490.345 534.493 490.196C529.79 490.047 525.819 494.92 525.624 501.079C525.429 507.239 529.085 512.352 533.789 512.501C538.492 512.65 542.463 507.777 542.658 501.618Z" fill="#3F3D56"/>
<path opacity="0.2" d="M543.085 487.982C543.279 481.823 539.624 476.709 534.92 476.56C530.216 476.412 526.245 481.285 526.05 487.444C525.856 493.603 529.511 498.717 534.215 498.866C538.919 499.014 542.89 494.142 543.085 487.982Z" fill="#3F3D56"/>
<path opacity="0.2" d="M543.511 474.347C543.706 468.187 540.05 463.073 535.346 462.925C530.643 462.776 526.672 467.649 526.477 473.808C526.282 479.968 529.938 485.081 534.642 485.23C539.345 485.379 543.316 480.506 543.511 474.347Z" fill="#3F3D56"/>
<path opacity="0.2" d="M506.008 379.737C504.887 378.218 503.875 376.621 502.982 374.958L525.488 371.987L501.262 371.406C499.1 366.278 498.007 360.762 498.049 355.197C498.092 349.631 499.269 344.133 501.509 339.038L533.46 356.919L504.192 333.949C507.145 329.174 511.05 325.058 515.665 321.86C520.279 318.661 525.503 316.449 531.011 315.36C536.519 314.272 542.192 314.331 547.676 315.533C553.16 316.736 558.337 319.057 562.884 322.35C567.431 325.644 571.25 329.839 574.102 334.675C576.955 339.511 578.78 344.883 579.463 350.456C580.146 356.029 579.673 361.683 578.074 367.065C576.474 372.447 573.782 377.441 570.165 381.736C571.909 384.098 573.392 386.643 574.585 389.326L545.047 403.503L576.369 394.081C578.341 400.59 578.659 407.488 577.294 414.151C575.928 420.813 572.922 427.03 568.548 432.238C573.096 438.409 575.815 445.734 576.396 453.377C576.976 461.021 575.394 468.673 571.83 475.459C568.266 482.245 562.865 487.892 556.244 491.753C549.622 495.613 542.048 497.533 534.387 497.291C526.726 497.05 519.288 494.657 512.923 490.387C506.558 486.116 501.523 480.141 498.394 473.144C495.265 466.146 494.168 458.41 495.228 450.818C496.289 443.227 499.464 436.087 504.392 430.215C498.959 422.841 496.162 413.855 496.451 404.7C496.74 395.545 500.097 386.753 505.984 379.737H506.008Z" fill="#BB6BD9"/>
<path opacity="0.1" d="M578.105 407.278C577.826 416.438 574.458 425.235 568.548 432.238C573.096 438.409 575.815 445.734 576.396 453.377C576.976 461.021 575.394 468.673 571.83 475.459C568.266 482.246 562.865 487.892 556.244 491.753C549.622 495.613 542.048 497.533 534.387 497.291C526.726 497.05 519.288 494.657 512.923 490.387C506.558 486.116 501.523 480.141 498.394 473.144C495.265 466.146 494.168 458.41 495.228 450.818C496.289 443.227 499.464 436.087 504.392 430.215C499.159 423.103 578.248 402.698 578.105 407.278Z" fill="black"/>
</g>
<g opacity="0.2">
<path opacity="0.2" d="M420.715 528.863C420.69 529.722 420.591 530.577 420.421 531.42C414.878 530.538 409.303 529.742 403.697 529.03C403.697 528.807 403.697 528.576 403.697 528.345C403.748 525.957 404.436 523.626 405.687 521.591C407.328 518.995 409.821 517.37 412.568 517.458C415.316 517.546 417.697 519.322 419.17 522.006C420.285 524.114 420.818 526.481 420.715 528.863Z" fill="#3F3D56"/>
<path opacity="0.2" d="M421.164 515.257C421.359 509.097 417.703 503.984 412.999 503.835C408.295 503.686 404.324 508.559 404.13 514.718C403.935 520.878 407.591 525.991 412.294 526.14C416.998 526.289 420.969 521.416 421.164 515.257Z" fill="#3F3D56"/>
<path opacity="0.2" d="M421.598 501.621C421.793 495.462 418.138 490.348 413.434 490.199C408.73 490.051 404.759 494.923 404.564 501.083C404.37 507.242 408.025 512.356 412.729 512.504C417.433 512.653 421.404 507.78 421.598 501.621Z" fill="#3F3D56"/>
<path opacity="0.2" d="M422.025 487.986C422.22 481.826 418.564 476.712 413.86 476.564C409.156 476.415 405.185 481.288 404.991 487.447C404.796 493.607 408.452 498.72 413.156 498.869C417.859 499.018 421.83 494.145 422.025 487.986Z" fill="#3F3D56"/>
<path opacity="0.2" d="M422.452 474.35C422.646 468.191 418.991 463.077 414.287 462.928C409.583 462.78 405.612 467.652 405.417 473.812C405.223 479.971 408.878 485.085 413.582 485.233C418.286 485.382 422.257 480.509 422.452 474.35Z" fill="#3F3D56"/>
<path opacity="0.2" d="M384.957 379.737C383.836 378.218 382.825 376.621 381.931 374.958L404.437 371.987L380.211 371.406C378.049 366.278 376.956 360.762 376.998 355.197C377.041 349.631 378.218 344.133 380.458 339.038L412.409 356.919L383.142 333.949C386.094 329.174 390 325.058 394.614 321.86C399.228 318.661 404.452 316.449 409.96 315.36C415.468 314.272 421.141 314.331 426.625 315.533C432.109 316.736 437.286 319.057 441.833 322.35C446.38 325.644 450.199 329.839 453.052 334.675C455.904 339.511 457.729 344.883 458.412 350.456C459.096 356.029 458.623 361.683 457.023 367.065C455.423 372.447 452.731 377.441 449.114 381.736C450.859 384.098 452.341 386.643 453.534 389.326L423.996 403.503L455.318 394.081C457.291 400.59 457.609 407.488 456.243 414.151C454.877 420.813 451.872 427.03 447.498 432.238C452.045 438.409 454.765 445.734 455.345 453.377C455.925 461.021 454.343 468.673 450.779 475.459C447.216 482.245 441.814 487.892 435.193 491.753C428.571 495.613 420.997 497.533 413.336 497.291C405.676 497.05 398.237 494.657 391.872 490.387C385.507 486.116 380.472 480.141 377.343 473.144C374.214 466.146 373.117 458.41 374.178 450.818C375.238 443.227 378.414 436.087 383.341 430.215C377.908 422.841 375.111 413.855 375.4 404.7C375.689 395.545 379.047 386.753 384.934 379.737H384.957Z" fill="#BB6BD9"/>
<path opacity="0.1" d="M457.054 407.278C456.776 416.438 453.408 425.235 447.498 432.238C452.045 438.409 454.765 445.734 455.345 453.377C455.925 461.021 454.343 468.673 450.779 475.459C447.216 482.246 441.814 487.892 435.193 491.753C428.571 495.613 420.997 497.533 413.336 497.291C405.676 497.05 398.237 494.657 391.872 490.387C385.507 486.116 380.472 480.141 377.343 473.144C374.214 466.146 373.117 458.41 374.178 450.818C375.238 443.227 378.414 436.087 383.341 430.215C378.109 423.103 457.198 402.698 457.054 407.278Z" fill="black"/>
</g>
<g opacity="0.2">
<path opacity="0.2" d="M751.375 537.576C751.314 539.203 751.12 540.823 750.793 542.418C740.122 540.714 729.373 539.19 718.548 537.847C718.548 537.417 718.548 536.979 718.548 536.533C718.649 531.933 719.974 527.444 722.386 523.527C725.572 518.533 730.35 515.403 735.63 515.562C740.91 515.722 745.505 519.154 748.372 524.323C750.534 528.395 751.571 532.97 751.375 537.576Z" fill="#3F3D56"/>
<path opacity="0.2" d="M752.241 511.354C752.616 499.493 745.575 489.645 736.515 489.359C727.454 489.072 719.805 498.456 719.431 510.317C719.056 522.179 726.097 532.027 735.157 532.313C744.218 532.6 751.866 523.216 752.241 511.354Z" fill="#3F3D56"/>
<path opacity="0.2" d="M753.069 485.103C753.444 473.241 746.403 463.394 737.342 463.107C728.282 462.821 720.633 472.205 720.258 484.066C719.883 495.928 726.925 505.776 735.985 506.062C745.045 506.348 752.694 496.965 753.069 485.103Z" fill="#3F3D56"/>
<path opacity="0.2" d="M753.905 458.852C754.279 446.991 747.238 437.143 738.178 436.856C729.118 436.57 721.469 445.954 721.094 457.815C720.719 469.677 727.76 479.525 736.821 479.811C745.881 480.097 753.53 470.714 753.905 458.852Z" fill="#3F3D56"/>
<path opacity="0.2" d="M753.799 431.406C754.155 419.539 747.095 409.698 738.03 409.426C728.965 409.154 721.327 418.554 720.971 430.421C720.615 442.289 727.675 452.13 736.74 452.402C745.805 452.674 753.443 443.274 753.799 431.406Z" fill="#3F3D56"/>
<path opacity="0.2" d="M682.527 250.49C680.378 247.566 678.433 244.498 676.706 241.307L720.029 235.588L673.401 234.465C669.236 224.593 667.128 213.975 667.208 203.261C667.287 192.546 669.552 181.961 673.862 172.151L735.383 206.566L679.047 162.347C684.743 153.175 692.267 145.275 701.15 139.139C710.033 133.002 720.085 128.762 730.679 126.681C741.273 124.599 752.181 124.723 762.726 127.043C773.27 129.363 783.223 133.829 791.965 140.165C800.707 146.5 808.051 154.569 813.538 163.867C819.026 173.165 822.54 183.494 823.861 194.21C825.182 204.926 824.282 215.799 821.217 226.152C818.152 236.504 812.988 246.115 806.047 254.384C809.402 258.936 812.256 263.836 814.56 268.999L757.69 296.309L817.985 278.15C821.784 290.666 822.403 303.932 819.785 316.747C817.166 329.562 811.393 341.521 802.989 351.543C811.741 363.422 816.975 377.524 818.091 392.237C819.207 406.951 816.161 421.681 809.3 434.745C802.439 447.808 792.041 458.677 779.294 466.109C766.547 473.541 751.967 477.236 737.22 476.771C722.472 476.306 708.153 471.7 695.9 463.48C683.647 455.26 673.954 443.757 667.93 430.287C661.905 416.818 659.793 401.924 661.833 387.311C663.874 372.697 669.985 358.952 679.469 347.648C669.016 333.453 663.634 316.156 664.189 298.536C664.744 280.915 671.202 263.992 682.527 250.482V250.49Z" fill="#BB6BD9"/>
<path opacity="0.1" d="M821.337 303.501C820.815 321.126 814.361 338.058 803.02 351.559C811.773 363.438 817.007 377.54 818.123 392.253C819.239 406.967 816.192 421.697 809.331 434.761C802.471 447.824 792.072 458.693 779.326 466.125C766.579 473.557 751.999 477.252 737.251 476.787C722.504 476.322 708.185 471.716 695.932 463.496C683.679 455.276 673.986 443.773 667.961 430.303C661.937 416.834 659.824 401.941 661.865 387.327C663.906 372.713 670.017 358.968 679.501 347.664C669.355 333.957 821.616 294.685 821.337 303.501Z" fill="black"/>
</g>
<path d="M125.686 538.978L134.04 538.954H145.818L160.711 297.01L308.194 50.8849L301.783 44.0036V26.5774L142.282 291.308L125.686 538.978Z" fill="#F1C0C0"/>
<path opacity="0.1" d="M134.932 538.954H145.818L160.711 297.01L308.194 50.8848L301.783 44.0035L149.657 293.322L134.932 538.954Z" fill="black"/>
<path d="M101.069 540.993L483.215 570.238L483.542 570.262L853.376 547.516L853.655 547.5V531.881L446.144 524.403L106.158 524.076H103.674L103.403 525.828L101.069 540.993Z" fill="#F1C0C0"/>
<path opacity="0.1" d="M101.069 540.993L483.215 570.238L483.542 570.262L853.376 547.516L853.655 547.213V532.208H853.328L483.215 544.569L106.158 524.076H106.102L105.434 524.514L103.403 525.828L101.069 540.993Z" fill="black"/>
<path opacity="0.1" d="M101.069 540.993L483.215 570.238V544.569L105.434 524.514L103.403 525.828L101.069 540.993Z" fill="black"/>
<path d="M301.735 43.677L470.21 224.518L465.002 542.617L479.313 544.346L479.552 544.378H493.863L495.575 238.177L811.048 343.562L816.368 531.204L827.884 532.495L831.786 532.933L822.755 330.548L492.971 214.761L312.144 26.7605H301.735V43.677Z" fill="#F1C0C0"/>
<path opacity="0.1" d="M494.277 232.323L495.575 238.177L811.048 343.562L816.368 531.205L827.884 532.495L818.853 339.66L494.277 232.323Z" fill="black"/>
<path opacity="0.1" d="M301.735 43.677L470.21 224.518L465.002 542.617L479.313 544.346L483.215 214.108L301.735 26.7605V43.677Z" fill="black"/>
<path d="M494.891 359.985L610.598 382.771L610.637 382.779L813.294 422.705L822.572 418.985L822.54 418.332L821.935 405.39L495.01 339.325L494.891 359.985Z" fill="#F1C0C0"/>
<path opacity="0.1" d="M610.637 382.779L813.294 422.705L822.572 418.985L822.54 418.332L610.637 382.779Z" fill="black"/>
<path d="M618.386 279.202L621.516 451.504L623.133 539.902L637.38 539.424L646.347 539.121L643.56 281.694L637.38 279.64L636.026 279.202H618.386Z" fill="#F1C0C0"/>
<path opacity="0.1" d="M618.514 279.162V279.202L621.516 451.504L623.133 539.902L637.38 539.424V279.162H618.514Z" fill="black"/>
<path d="M395.215 323.205C396.051 323.659 396.849 324.179 397.604 324.758C398.496 325.539 399.297 326.418 399.993 327.378C403.41 331.799 406.563 336.936 406.229 342.511C406.236 343.322 406.083 344.127 405.778 344.878C405.473 345.63 405.023 346.314 404.453 346.891C403.043 348.094 401.02 348.15 399.173 348.15C397.166 348.15 395.055 348.15 393.319 347.114C391.583 346.079 390.134 344.064 388.079 344.112C387.789 344.16 387.493 344.16 387.203 344.112C386.494 343.881 386.351 342.949 385.889 342.36C385.093 341.3 383.412 341.563 382.162 342.025C380.912 342.487 379.526 343.18 378.292 342.646C377.575 342.268 376.989 341.682 376.611 340.966C373.657 336.187 373.027 330.445 372.47 324.894C372.128 321.517 369.515 310 376.723 312.62C379.908 313.767 382.887 316.061 385.786 317.741L395.215 323.205Z" fill="#3F3D56"/>
<path d="M388.095 324.344C388.739 324.807 389.519 325.041 390.311 325.01C391.104 324.978 391.863 324.682 392.467 324.169C393.653 323.097 394.409 321.631 394.594 320.043C395.39 319.796 395.796 320.84 396.306 321.477C397.198 322.56 399.014 322.544 399.826 323.699C400.391 324.495 400.264 325.602 400.662 326.502C401.18 327.665 402.462 328.27 403.338 329.21C404.165 330.237 404.763 331.429 405.09 332.707L406.396 336.625C407.021 338.255 407.423 339.961 407.591 341.698C407.673 342.567 407.582 343.443 407.322 344.276C407.062 345.109 406.639 345.881 406.078 346.549C404.325 348.436 401.451 348.636 398.91 348.58C398.062 348.598 397.215 348.499 396.393 348.285C394.14 347.584 392.698 345.314 392.101 343.029C391.504 340.743 391.567 338.345 391.217 336.004C390.838 333.704 390.169 331.461 389.226 329.33C388.525 327.673 386.598 325.204 386.63 323.444C387.203 323.444 387.617 323.97 388.095 324.344Z" fill="#3F3D56"/>
<path d="M390.954 316.276C390.582 315.145 390.365 313.969 390.309 312.78C390.309 310.39 391.4 308.144 392.499 306.01L383.397 307.244C382.298 307.396 381.071 307.619 380.45 308.535C380.214 308.988 380.091 309.493 380.091 310.004C380.091 310.516 380.214 311.02 380.45 311.473C380.906 312.382 381.269 313.335 381.533 314.317C381.554 315.176 381.652 316.032 381.828 316.873C382.111 317.492 382.508 318.051 382.998 318.522C385.603 321.405 387.554 324.806 389.497 328.175C389.441 328.079 394.984 323.787 394.761 322.385C394.634 321.588 393.033 320.633 392.523 319.868C391.819 318.758 391.29 317.547 390.954 316.276Z" fill="#BE6F72"/>
<path d="M469 285.159V293.004L334.673 319.207L327.705 323.428H303.662V319.008L435.639 287.118L469 285.159Z" fill="#F1C0C0"/>
<path opacity="0.1" d="M469 293.004L334.673 319.207L327.705 323.428H303.662L436.619 294.971L469 293.004Z" fill="black"/>
<path d="M361.153 507.861C359.657 506.048 357.591 504.795 355.292 504.307C352.992 503.818 350.595 504.122 348.491 505.169C348.04 505.381 347.643 505.691 347.328 506.077C346.532 507.192 347.042 508.729 347.113 510.107C347.296 513.468 344.62 516.199 342.215 518.549C340.925 519.807 339.611 521.153 339.03 522.866C338.448 524.578 338.879 526.752 340.439 527.644C341.121 527.986 341.862 528.191 342.622 528.25C345.167 528.746 347.777 528.819 350.347 528.465C352.887 527.979 355.38 526.537 356.479 524.196C356.691 523.561 357.042 522.981 357.506 522.499C358.908 521.392 361.058 522.69 362.651 521.902C363.965 521.249 364.02 520.221 364.036 518.868C364.084 515.124 363.527 510.887 361.153 507.861Z" fill="#BB6BD9"/>
<path d="M380.267 507.717C381.246 510.298 381.382 513.109 381.509 515.865C381.581 517.458 381.628 519.162 380.768 520.508C379.908 521.854 378.228 522.563 376.619 522.898C373.298 523.582 369.452 522.937 367.309 520.301C365.669 518.286 365.326 515.522 365.629 512.91C365.884 510.768 366.425 508.259 364.888 506.738C364.49 506.332 363.973 506.045 363.606 505.607C362.81 504.635 362.937 503.17 363.367 501.975C363.927 500.832 364.347 499.626 364.618 498.383C364.681 497.794 375.401 498.797 376.388 499.283C377.734 499.944 377.527 501.051 377.933 502.389C378.499 504.253 379.582 505.933 380.267 507.717Z" fill="#BB6BD9"/>
<path d="M382.234 393.3C384.336 394.662 385.148 397.338 385.475 399.823C386.375 406.633 384.798 413.514 384.679 420.387C384.567 430.016 387.354 439.821 384.973 449.147C383.548 454.722 384.758 461.094 383.42 466.724C383.022 468.397 382.289 469.974 381.907 471.646C381.111 475.27 381.947 479.061 383.07 482.606C383.428 483.561 383.656 484.56 383.747 485.576C383.693 487.141 383.296 488.674 382.584 490.068L377.806 501.37C377.272 502.636 375.17 502.843 373.824 503.01C371.291 503.313 368.464 503.528 366.449 501.959C364.435 500.39 363.949 497.762 363.638 495.309C363.042 490.6 362.776 485.855 362.842 481.108C362.929 479.869 362.819 478.625 362.515 477.421C362.077 476.059 361.114 474.88 360.851 473.438C360.516 471.575 361.464 469.743 361.814 467.863C362.055 466.147 362.028 464.403 361.735 462.694C361.424 460.146 361.066 457.597 360.66 455.064C360.086 451.52 360.907 448.024 361.456 444.472C361.974 441.135 361.313 437.734 360.66 434.421C360.716 437.11 360.381 439.793 359.664 442.385C359.242 443.651 358.637 444.862 358.27 446.152C356.638 451.942 360.118 458.019 359.624 464.016C359.393 466.82 358.294 469.592 358.605 472.355C358.82 474.378 359.76 476.234 360.405 478.161C361.05 480.089 361.384 482.295 360.405 484.095C357.817 488.985 359.752 495.635 362.069 500.653C362.54 501.543 362.949 502.464 363.296 503.409C363.981 505.671 363.407 508.1 363.59 510.457C362.923 510.566 362.24 510.522 361.593 510.327C360.946 510.133 360.351 509.793 359.855 509.334C359.505 508.968 359.218 508.538 358.876 508.155C357.919 507.243 356.786 506.536 355.547 506.077C354.819 505.669 353.99 505.479 353.158 505.527C352.282 505.772 351.495 506.261 350.888 506.937C350.1 507.63 349.265 508.266 348.387 508.84C348.014 509.128 347.577 509.321 347.113 509.406C346.88 509.442 346.641 509.404 346.431 509.296C346.221 509.189 346.05 509.018 345.942 508.809C345.893 508.676 345.863 508.536 345.855 508.394C345.559 505.99 345.402 503.57 345.385 501.147C345.385 496.981 340.4 494.114 339.77 489.997C339.269 486.675 340.2 483.29 339.89 479.945C339.739 478.225 339.261 476.537 339.293 474.816C339.293 473.701 339.547 472.61 339.635 471.503C339.708 470.274 339.689 469.042 339.579 467.816L339.332 463.969C339.093 460.17 338.831 456.291 337.333 452.818C335.558 448.764 334.507 444.429 334.228 440.012C334.068 437.224 334.172 434.437 333.853 431.641C333.567 429.116 332.929 426.607 333.113 424.075C333.264 422.116 333.909 420.22 334.06 418.261C334.371 414.494 332.937 410.83 331.815 407.222C330.692 403.614 329.863 399.616 331.337 396.136C331.547 395.564 331.898 395.055 332.356 394.654C332.921 394.28 333.564 394.041 334.236 393.953C347.9 391.083 361.905 390.19 375.823 391.301C378.092 391.43 380.294 392.116 382.234 393.3Z" fill="#3F3D56"/>
<path d="M337.023 308.71C344.069 308.71 349.781 302.997 349.781 295.951C349.781 288.904 344.069 283.192 337.023 283.192C329.977 283.192 324.265 288.904 324.265 295.951C324.265 302.997 329.977 308.71 337.023 308.71Z" fill="#BE6F72"/>
<path d="M334.554 311.888C334.737 312.617 334.737 313.38 334.554 314.11C334.353 314.619 334.071 315.093 333.718 315.511C332.483 317.105 331.116 318.591 329.632 319.956C330.388 321.644 331.749 322.988 333.447 323.723C335.133 324.44 336.901 324.946 338.711 325.228C339.615 325.466 340.555 325.53 341.483 325.419C342.337 325.204 343.147 324.837 343.872 324.336L350.96 320.091C352.029 319.512 353.019 318.797 353.906 317.964C355.206 316.628 355.942 314.843 355.961 312.979C355.994 312.645 355.903 312.31 355.706 312.039C355.434 311.802 355.094 311.66 354.734 311.633C352.242 311.083 350.275 309.06 349.16 306.766C348.152 304.415 347.5 301.927 347.225 299.383L339.667 303.366C338.544 303.963 337.429 304.56 336.266 305.078C335.526 305.412 334.028 305.691 333.503 306.368C332.499 307.619 334.291 310.382 334.554 311.888Z" fill="#BE6F72"/>
<path d="M329.68 317.638C328.604 318.52 327.764 319.656 327.235 320.943C326.742 322.536 327.235 324.217 327.681 325.793C329.771 332.515 331.368 339.38 332.46 346.334C333.129 351.112 333.375 355.963 333.702 360.797C334.371 370.657 335.342 386.379 336.641 396.175C341.419 396.39 346.078 394.997 350.816 394.487C359.672 393.547 368.791 395.697 377.463 393.69C375.361 385.383 373.258 371.199 371.156 362.9C370.226 359.63 369.581 356.286 369.229 352.904C369.046 350.475 369.157 348.038 369.189 345.593C369.261 340.814 368.998 336.036 368.735 331.257C368.432 325.682 368.13 320.107 366.808 314.651C366.716 313.956 366.39 313.313 365.884 312.827C365.088 312.246 364.052 312.453 363.105 312.58C360.203 312.949 357.266 312.253 354.838 310.621C353.787 309.904 352.377 309.028 351.398 309.825C350.98 310.305 350.704 310.893 350.601 311.521C350.168 312.648 349.499 313.669 348.639 314.517C347.779 315.364 346.749 316.018 345.616 316.435C343.346 317.257 340.97 317.745 338.56 317.885C337.822 318.043 337.054 317.956 336.37 317.638C335.239 316.945 335.159 314.452 333.734 314.285C332.483 314.141 330.524 316.833 329.68 317.638Z" fill="#3F3D56"/>
<path d="M348.523 337.087C345.584 334.276 344.294 330.198 342.152 326.733C340.693 324.404 338.829 322.354 336.649 320.68C335.552 319.956 334.547 319.103 333.654 318.14C332.898 317.208 332.324 315.965 331.177 315.607C330.703 315.504 330.212 315.517 329.744 315.646C329.277 315.775 328.847 316.016 328.494 316.348C327.791 317.017 327.127 317.724 326.503 318.466C323.126 321.963 317.193 322.448 314.517 326.494C313.795 327.352 313.304 328.38 313.091 329.481C312.321 335.37 313.844 341.329 317.344 346.127C318.022 347.239 319.063 348.083 320.291 348.516C320.124 350.001 320.321 351.504 320.864 352.896C322.339 357.937 324.151 362.873 326.288 367.671C325.777 369.547 325.42 371.462 325.22 373.397C324.663 378.263 325.181 383.201 324.655 388.075C324.225 392.058 323.062 395.936 323.022 399.927C323.022 400.564 323.078 401.32 323.628 401.647C323.92 401.797 324.247 401.866 324.575 401.846L334.371 402.141C340.057 402.308 345.799 402.475 351.398 401.424C352.143 401.314 352.866 401.085 353.54 400.747C355.435 399.688 356.064 397.298 356.367 395.172C356.762 392.413 356.919 389.626 356.837 386.841C358.024 390.592 359.433 394.471 363.017 396.096C364.912 396.956 367.078 396.892 369.157 396.836C373.637 396.637 378.102 396.177 382.528 395.458C382.801 395.492 383.078 395.462 383.337 395.369C383.596 395.277 383.829 395.125 384.019 394.926C384.209 394.727 384.349 394.487 384.429 394.224C384.509 393.961 384.526 393.682 384.479 393.412L384.527 389.063C384.623 380.23 382.433 371.788 381.581 362.995C381.31 360.224 381.334 357.42 380.657 354.704C380.378 353.565 379.972 352.45 379.725 351.304C379.513 350.181 379.38 349.044 379.327 347.903L378.706 339.142C378.411 335.088 377.989 331.177 377.678 327.131C377.508 323.192 376.937 319.28 375.974 315.456C375.281 313.066 373.84 310.358 371.347 310.064C370.017 309.912 368.727 310.494 367.461 310.9C364.348 311.88 361.008 311.866 357.904 310.86C356.945 310.481 355.946 310.214 354.926 310.064C354.412 309.994 353.889 310.062 353.411 310.26C352.932 310.459 352.515 310.782 352.202 311.195C351.893 311.817 351.748 312.508 351.78 313.202C351.406 321.158 350.713 329.354 348.523 337.087Z" fill="#BB6BD9"/>
<path d="M335.709 337.326C332.038 333.455 328.271 329.513 323.54 327.052C321.677 326.08 319.558 325.347 317.496 325.714C315.433 326.08 313.514 327.872 313.609 329.967C313.673 331.265 314.461 332.412 314.708 333.686C314.995 335.12 314.581 336.649 315.027 338.035C315.389 338.948 315.931 339.779 316.619 340.48L322.258 347.162C324.647 349.95 327.036 352.777 330.11 354.704C333.184 356.632 337.166 357.532 340.543 356.162C342.945 355.045 344.943 353.212 346.261 350.913C347.663 348.683 348.65 346.246 349.964 343.944C352.009 340.267 354.708 336.993 357.928 334.284C356.272 333.854 354.193 333.248 353.15 331.894C352.853 331.464 352.599 331.005 352.393 330.524L351.103 327.737C350.664 327.714 350.225 327.782 349.814 327.937C349.403 328.092 349.028 328.33 348.714 328.637C348.161 329.276 347.567 329.88 346.938 330.445C345.815 331.289 344.294 331.52 343.275 332.484C342.88 332.897 342.523 333.345 342.207 333.822C341.436 334.835 340.458 335.672 339.337 336.276C338.216 336.881 336.979 337.239 335.709 337.326Z" fill="#3F3D56"/>
<path d="M358.223 320.672C360.986 315.631 360.859 309.586 361.647 303.891C361.733 302.383 362.262 300.934 363.168 299.726C364.761 297.926 367.572 297.902 369.977 298.133C370.686 298.213 371.57 298.547 371.53 299.256C371.474 299.51 371.351 299.744 371.172 299.933C368.841 302.942 367.47 306.583 367.238 310.382C368.488 311.25 370.423 309.466 371.626 310.382C372.422 311.051 372.056 312.373 371.578 313.329C370.469 315.543 369.324 317.741 368.146 319.924C367.205 321.847 365.978 323.617 364.506 325.172C363.495 326.144 362.308 326.909 361.281 327.864C358.892 330.102 357.45 333.264 354.981 335.446C354.773 335.672 354.49 335.817 354.185 335.853C353.871 335.83 353.575 335.698 353.349 335.478C352.116 334.475 351.093 333.238 350.339 331.839C349.399 330.102 349.542 329.593 351.023 328.366C353.795 326.176 356.495 323.826 358.223 320.672Z" fill="#BE6F72"/>
<path d="M331.09 333.901C331.568 334.196 332.157 334.531 332.682 334.284C332.897 334.154 333.08 333.977 333.216 333.766C334.126 332.551 334.886 331.23 335.478 329.832C335.58 329.634 335.637 329.416 335.645 329.194C335.645 328.685 335.191 328.31 334.769 328.016C332.507 326.574 330.076 325.418 327.53 324.575C325.427 323.779 323.229 323.086 321 323.285C320.162 323.341 319.344 323.566 318.595 323.947C317.847 324.327 317.183 324.855 316.643 325.499C315.05 327.546 317.718 328.167 319.391 328.908C323.261 330.668 327.45 331.687 331.09 333.901Z" fill="#BB6BD9"/>
<path opacity="0.1" d="M328.581 347.441C328.554 347.623 328.571 347.808 328.629 347.982C328.687 348.157 328.785 348.315 328.916 348.444C329.147 347.313 328.844 346.119 329.083 344.98C329.433 343.267 331.098 341.977 331.241 340.257C328.191 339.66 328.605 345.593 328.581 347.441Z" fill="black"/>
<path opacity="0.2" d="M469 285.159V293.004L436.619 294.971L435.639 287.118L469 285.159Z" fill="black"/>
<path d="M325.539 297.846C327.562 296.198 326.391 292.741 327.761 290.527C328.557 289.316 329.903 288.679 331.225 288.138C332.821 287.391 334.53 286.917 336.282 286.736C337.16 286.652 338.045 286.766 338.872 287.071C339.699 287.375 340.447 287.863 341.061 288.496C341.578 289.085 341.929 289.802 342.414 290.415C343.016 291.131 343.8 291.67 344.683 291.976C345.567 292.281 346.517 292.342 347.432 292.152C348.491 291.913 349.59 291.108 349.518 290.025C349.399 289.366 349.062 288.766 348.562 288.321L346.285 285.796C343.697 282.929 340.822 279.886 337.023 279.17C334.379 278.668 331.671 279.377 329.123 280.229C328.095 280.571 326.941 281.081 326.654 282.124C326.463 282.841 326.749 283.622 326.582 284.347C326.256 285.788 324.408 286.274 323.548 287.485C322.688 288.695 322.951 290.129 322.704 291.467C322.457 292.805 321.74 294.111 321.653 295.497C321.597 296.333 322.019 297.886 322.959 298.189C323.898 298.491 324.958 296.851 325.539 297.846Z" fill="#3F3D56"/>
<path d="M348.746 288.878C348.074 285.374 346.626 282.065 344.509 279.194C342.626 276.511 340.006 274.431 336.967 273.204C335.448 272.611 333.814 272.369 332.187 272.497C330.561 272.625 328.985 273.12 327.578 273.945C325.488 275.437 323.862 277.488 322.887 279.863C320.824 284.307 320.06 289.739 322.457 294.007C323.412 292.845 325.053 293.37 326.502 292.948C328.318 292.431 329.855 291.22 331.583 290.463C336.8 288.162 343.171 290.025 348.746 288.878Z" fill="#FED253"/>
<path opacity="0.1" d="M323.675 288.631C323.492 287.198 323.373 285.533 324.392 284.514C324.443 284.451 324.507 284.402 324.581 284.368C324.654 284.335 324.734 284.32 324.814 284.323C324.885 284.346 324.951 284.383 325.007 284.432C325.063 284.482 325.109 284.542 325.141 284.609C325.729 285.538 326.23 286.519 326.638 287.54C326.044 287.403 325.423 287.448 324.856 287.668C324.288 287.888 323.799 288.274 323.452 288.775" fill="black"/>
<path opacity="0.1" d="M342.287 284.585L342 281.742C341.954 281.508 341.973 281.265 342.056 281.041C342.176 280.854 342.361 280.717 342.576 280.659C342.791 280.6 343.02 280.623 343.219 280.723C343.61 280.94 343.933 281.263 344.15 281.655C344.813 282.672 345.363 283.759 345.791 284.896C344.508 284.649 343.189 284.665 341.913 284.944" fill="black"/>
<path opacity="0.1" d="M349.415 399.982V406.481L343.927 406.848H315.066V399.982H349.415Z" fill="black"/>
<path d="M349.415 399.982V406.848H315.066L223.816 292.534V287.134H242.946L349.415 399.982Z" fill="#F1C0C0"/>
<path opacity="0.1" d="M349.415 399.982V406.848H315.066L223.816 292.534V287.134H242.946L349.415 399.982Z" fill="black"/>
<path opacity="0.1" d="M349.415 399.982V406.848H315.066L223.816 292.534V287.134L315.56 399.982H349.415Z" fill="black"/>
<path d="M235.778 514.559C235.838 514.882 235.831 515.214 235.757 515.534C235.683 515.854 235.543 516.156 235.348 516.419C235.152 516.683 234.904 516.904 234.619 517.067C234.334 517.231 234.018 517.334 233.692 517.37C231.478 518.119 229.128 518.86 227.559 520.556C225.991 522.252 225.68 525.398 227.559 526.776C228.52 527.356 229.623 527.656 230.745 527.644C234.353 527.891 238.112 527.843 241.385 526.314C243.726 525.231 245.932 523.383 248.504 523.551C249.834 523.63 251.252 524.252 252.439 523.646C253.625 523.041 253.96 521.352 253.968 519.943C253.998 517 253.554 514.071 252.654 511.269C252.534 510.887 247.469 510.593 246.864 510.473L240.724 509.677C239.561 509.525 237.052 508.649 236.137 509.621C235.221 510.592 235.778 513.404 235.778 514.559Z" fill="#BB6BD9"/>
<path d="M272.42 494.68C272.68 496.114 273.102 497.514 273.678 498.853C274.53 501.019 275.621 503.321 277.708 504.372C279.603 505.32 281.929 504.978 283.856 504.078C284.66 503.744 285.365 503.209 285.903 502.524C286.524 501.441 286.802 500.194 286.699 498.948C286.699 495.866 286.516 492.68 285.106 489.941C283.896 487.551 281.785 485.496 281.754 482.852L274.499 484.254C274.11 484.291 273.74 484.438 273.431 484.676C273.201 484.918 273.042 485.218 272.969 485.544C272.195 488.525 272.008 491.628 272.42 494.68Z" fill="#BB6BD9"/>
<path d="M185.781 419.017C185.478 421.582 185.606 424.33 186.944 426.544C188.282 428.758 191.101 430.223 193.538 429.339C193.663 429.307 193.78 429.251 193.882 429.173C193.985 429.095 194.071 428.997 194.135 428.885C194.2 428.616 194.163 428.332 194.032 428.089C192.956 425.217 193.044 422.039 194.278 419.232C194.438 418.866 194.78 418.436 195.154 418.579C195.311 418.659 195.437 418.787 195.513 418.946C195.898 419.613 196.091 420.374 196.07 421.144C195.958 421.842 195.936 422.551 196.007 423.254C196.158 423.939 196.891 424.584 197.528 424.29C197.712 424.177 197.871 424.027 197.996 423.851C198.12 423.674 198.208 423.474 198.252 423.262C200.028 418.125 199.224 412.51 198.412 407.134C198.418 407.011 198.398 406.887 198.352 406.773C198.306 406.658 198.235 406.555 198.145 406.471C198.054 406.386 197.946 406.323 197.829 406.285C197.711 406.247 197.587 406.235 197.464 406.25C193.705 405.876 191.65 404.976 189.5 408.472C187.652 411.419 185.781 415.473 185.781 419.017Z" fill="#BB6BD9"/>
<path d="M229.726 405.948C228.611 410.583 227.488 415.274 227.416 420.037C227.436 423.003 227.659 425.965 228.085 428.901L228.921 435.798C229.208 438.124 229.487 440.442 229.893 442.743C230.152 443.929 230.294 445.138 230.315 446.351C230.237 447.548 230.048 448.734 229.75 449.895C229.249 452.334 228.969 454.813 228.913 457.302C228.826 461.285 229.32 465.267 229.63 469.249C230.25 477.185 230.157 485.16 229.351 493.079C229.03 495.216 229.494 497.398 230.658 499.219C231.13 499.794 231.519 500.432 231.812 501.115C232.41 502.939 231.016 504.762 230.658 506.634C230.428 508.094 230.788 509.584 231.657 510.779C232.526 511.974 233.833 512.775 235.293 513.006C241.664 513.762 248.21 513.42 253.952 516.335C254.557 514.567 253.235 512.56 253.84 510.76C254.223 509.645 255.274 508.92 255.991 507.98C256.954 506.548 257.433 504.846 257.36 503.122C257.389 500.871 256.989 498.636 256.182 496.535C255.505 494.783 254.533 493.055 254.589 491.175C254.589 490.251 254.915 489.28 254.541 488.427C254.285 487.938 253.936 487.502 253.514 487.145C251.134 484.537 249.671 481.223 249.349 477.707C249.038 474.218 249.151 470.704 249.683 467.242C250.073 463.945 250.599 460.464 252.694 457.892C251.722 450.091 252.293 442.176 254.374 434.596C254.581 433.895 254.908 433.082 255.624 432.915C255.909 432.886 256.197 432.926 256.463 433.031C256.729 433.136 256.966 433.304 257.153 433.521C258.404 434.691 259.001 436.388 259.543 438.012C260.14 439.773 260.745 441.652 260.291 443.452C260.1 444.249 259.718 444.949 259.495 445.714C259.01 447.251 259.095 448.91 259.734 450.389C260.045 450.93 260.24 451.529 260.307 452.149C260.233 452.682 260.072 453.199 259.829 453.679C259.534 454.621 259.44 455.615 259.554 456.596C259.668 457.577 259.987 458.523 260.49 459.373C261.505 461.064 262.758 462.601 264.209 463.937C263.516 466.994 263.695 470.184 264.727 473.144C264.801 473.277 264.849 473.424 264.867 473.575C264.884 473.727 264.872 473.881 264.831 474.028C264.687 474.33 264.321 474.442 264.034 474.657C263.238 475.31 263.732 476.544 264.265 477.397C265.727 479.736 267.342 481.976 269.099 484.103C270.692 486.006 270.549 489.678 272.922 490.363C273.919 490.578 274.951 490.578 275.948 490.363C278.289 490.004 280.902 489.327 282.048 487.257C282.518 486.404 282.709 485.369 283.442 484.732C284.175 484.095 285.122 483.983 285.529 483.219C285.935 482.454 285.481 481.451 285.616 480.567C285.752 479.682 286.524 478.974 286.771 478.042C287.36 475.891 284.852 474.123 284.509 471.925C284.015 468.739 288.029 466.35 287.862 463.164C287.512 456.243 287.289 449.29 286.93 442.369C286.48 436.169 286.417 429.948 286.739 423.74C287.018 419.877 287.535 415.831 286.118 412.239C284.079 407.174 278.457 404.331 273.017 403.789C267.578 403.248 262.155 404.538 256.763 405.382C247.815 406.761 238.724 406.951 229.726 405.948Z" fill="#3F3D56"/>
<path d="M245.892 329.823C252.939 329.823 258.651 324.111 258.651 317.064C258.651 310.018 252.939 304.305 245.892 304.305C238.846 304.305 233.134 310.018 233.134 317.064C233.134 324.111 238.846 329.823 245.892 329.823Z" fill="#FBBEBE"/>
<path d="M240.7 332.205C240.267 333.214 239.538 334.069 238.61 334.656C237.681 335.243 236.597 335.535 235.5 335.494C235.038 337.406 236.145 339.333 237.411 340.838C240.04 343.898 243.438 346.202 247.254 347.511C251.07 348.82 255.167 349.087 259.12 348.285C260.659 348.01 262.119 347.401 263.397 346.501C265.12 345.062 266.277 343.058 266.662 340.846C267.029 338.65 267.133 336.417 266.973 334.196C267.017 333.757 266.892 333.318 266.622 332.969C266.304 332.723 265.91 332.593 265.507 332.603C262.816 332.364 260.004 332.261 257.639 330.939C255.274 329.616 253.593 326.63 254.732 324.177C254.549 324.559 249.898 324.742 249.285 324.822C247.366 325.093 245.446 325.395 243.535 325.746C242.617 325.796 241.709 325.968 240.835 326.255C239.681 326.853 240.111 326.558 240.381 327.641C240.788 329.298 241.385 330.485 240.7 332.205Z" fill="#FBBEBE"/>
<path d="M250.408 339.962C248.689 339.982 246.975 339.792 245.303 339.397C243.614 339.002 242.126 338.009 241.114 336.601C240.525 335.709 240.142 334.586 239.203 334.085C237.666 333.288 235.913 334.634 234.687 335.869C233.57 337.086 232.276 338.128 230.848 338.959C229.144 339.859 227.153 340.177 225.545 341.237C224.288 342.186 223.209 343.351 222.359 344.677L211.074 360.049C206.543 366.229 202.601 372.863 198.563 379.386C195.067 385.033 193.235 391.532 190.599 397.625C190.39 397.998 190.304 398.427 190.352 398.851C190.448 399.266 190.949 399.6 191.3 399.361C190.113 400.54 191.157 402.547 190.878 404.204C190.561 405.363 189.9 406.399 188.982 407.174C190.735 406.946 192.515 407.029 194.239 407.421C196.02 407.926 197.701 408.734 199.208 409.811C200.172 409.659 200.084 407.947 200.801 407.31C201.231 406.935 201.868 406.983 202.433 406.872C204.56 406.457 205.404 403.901 207.037 402.459C208.398 401.257 210.326 400.866 211.767 399.735C214.108 397.896 214.61 394.622 215.837 391.906C216.88 389.605 218.52 387.598 219.436 385.24C220.034 383.711 220.32 382.054 221.172 380.645C222.534 378.367 225.099 377.156 227.543 376.065C229.088 375.372 230.729 374.655 232.393 374.767C232.306 378.47 231.836 382.118 232.64 385.734C232.919 387.008 233.309 388.251 233.644 389.517C235.165 395.22 235.523 401.161 235.595 407.039C239.254 406.202 242.991 405.753 246.744 405.701C249.699 405.613 252.646 405.996 255.6 405.94C259.104 405.876 262.569 405.199 266.073 404.96C269.577 404.721 273.24 404.96 276.338 406.553C276.087 401.506 276.228 396.446 276.76 391.421L277.604 383.504C277.795 381.204 278.149 378.92 278.664 376.67C279.125 374.855 279.794 373.102 280.304 371.294C282.096 364.923 281.769 358.121 281.427 351.487C281.252 348.078 279.938 344.725 278.393 341.691C277.834 340.563 277.195 339.478 276.481 338.441C274.614 335.869 272.126 333.811 269.249 332.46C266.372 331.109 263.2 330.509 260.028 330.716C259.623 330.728 259.224 330.814 258.849 330.97C258.177 331.401 257.652 332.026 257.344 332.762C255.697 335.724 253.306 338.206 250.408 339.962Z" fill="#3F3D56"/>
<path d="M234.671 321.294C235.03 320.497 235.993 320.202 236.582 319.565C237.713 318.355 237.204 316.419 237.379 314.787C237.666 312.397 239.649 310.398 241.918 309.546C244.233 308.803 246.696 308.647 249.086 309.092C250.236 309.176 251.347 309.546 252.319 310.167C252.733 310.47 253.115 310.86 253.506 311.139C254.217 311.569 255.068 311.704 255.878 311.515C256.687 311.326 257.391 310.828 257.838 310.127C255.019 306.735 251.897 303.151 247.612 302.107C246.143 301.807 244.645 301.666 243.145 301.685C241.162 301.645 239.115 301.613 237.283 302.37C234.791 303.398 233.039 305.763 232.139 308.312C231.352 310.895 230.931 313.576 230.888 316.276C230.725 318.078 230.725 319.89 230.888 321.692C231.196 324.152 232.11 326.498 233.548 328.517C233.743 328.831 234.018 329.087 234.345 329.258C237.976 330.851 234.376 321.955 234.671 321.294Z" fill="#3F3D56"/>
<path d="M257.424 308.16C256.986 304.409 254.31 301.311 251.467 298.818C249.176 296.656 246.446 295.013 243.463 293.999C240.461 293.115 237.005 293.307 234.432 295.099C232.362 296.54 231.048 298.834 230.036 301.144C228.708 303.869 228.05 306.873 228.117 309.904C228.316 312.915 229.781 315.965 232.394 317.487C233.333 316.101 234.966 315.384 236.535 314.818C243.373 312.224 250.346 310.001 257.424 308.16Z" fill="#FED253"/>
<path opacity="0.1" d="M233.269 306.599C233.524 306.599 233.692 306.862 233.819 307.077C234.467 308.087 235.024 309.154 235.483 310.263C234.552 310.462 232.951 310.685 232.489 309.865C232.242 309.45 232.537 306.559 233.269 306.599Z" fill="black"/>
<path opacity="0.1" d="M251.419 304.799C251.228 304.982 251.005 304.608 251.005 304.337V301.247C251 301.161 251.019 301.076 251.061 301C251.094 300.962 251.134 300.932 251.179 300.91C251.225 300.888 251.274 300.875 251.324 300.873C251.969 300.801 252.502 301.351 252.917 301.876C253.545 302.728 254.092 303.638 254.549 304.592L251.18 304.489" fill="black"/>
<path d="M293.461 355.971C294.193 355.275 294.976 354.634 295.802 354.051C298.008 352.578 300.676 351.997 303.153 351.057C305.629 350.117 308.146 348.596 309.11 346.127C309.592 344.583 309.749 342.956 309.571 341.348C309.595 340.675 309.475 340.005 309.221 339.381C308.918 338.83 308.486 338.36 307.963 338.011C304.602 335.526 300.095 335.327 295.921 335.582C286.721 336.152 277.703 338.404 269.314 342.224C268.871 342.371 268.482 342.648 268.199 343.021C268.036 343.366 267.962 343.747 267.984 344.128C267.836 346.476 268.141 348.832 268.884 351.065C269.983 353.9 272.245 356.186 273.193 359.077C273.623 360.375 273.766 361.753 274.14 363.059C274.447 364.408 275.245 365.595 276.378 366.388C279.524 368.268 282.494 365.743 284.676 363.784L293.461 355.971Z" fill="#3F3D56"/>
<path d="M252.263 367.002L248.226 358.193C247.634 356.972 247.123 355.714 246.697 354.426C246.235 352.889 246.012 351.296 245.582 349.751C244.164 344.606 240.588 340.321 238.844 335.279C238.734 334.824 238.509 334.405 238.191 334.061C237.937 333.881 237.646 333.759 237.339 333.704C237.032 333.649 236.717 333.662 236.415 333.742C233.978 334.164 232.075 336.02 229.845 337.071C228.81 337.549 227.695 337.868 226.66 338.417C226.142 338.662 225.683 339.016 225.315 339.455C224.947 339.893 224.677 340.406 224.525 340.958C224.278 342.176 224.884 343.347 225.393 344.534C227.559 349.424 228.053 354.888 228.149 360.24C228.22 363.84 228.037 367.702 225.911 370.594C221.825 376.169 224.438 384.356 225.967 391.102C226.15 391.898 226.365 392.759 226.492 393.603C226.627 394.659 226.688 395.724 226.675 396.789C226.675 400.365 226.476 404.052 224.979 407.294C226.457 408.08 228.086 408.542 229.757 408.648C234.382 409.237 239.025 409.651 243.686 409.89C245.147 410.027 246.619 409.952 248.058 409.667C249.767 409.205 251.274 408.187 252.339 406.774C253.405 405.36 253.97 403.632 253.944 401.862C254.199 404.068 254.668 406.465 256.269 407.995C257.87 409.524 260.203 409.755 262.377 409.874C268.514 410.2 274.666 410.026 280.774 409.356C281.164 409.339 281.547 409.25 281.905 409.094C283.084 408.504 283.147 406.88 283.052 405.573C282.876 403.128 282.693 400.683 282.399 398.254C282.149 396.705 282.021 395.14 282.016 393.571C282.138 391.957 282.404 390.358 282.813 388.792C283.88 383.822 284.724 378.749 284.366 373.66C284.224 372.42 284.174 371.172 284.214 369.924C284.421 367.113 285.903 364.437 285.624 361.642C284.828 353.422 284.183 344.988 281.889 337.055C281.475 335.638 280.949 334.116 279.715 333.304C278.122 332.237 275.884 332.794 274.06 332.117C273.205 331.719 272.391 331.236 271.631 330.676C269.981 329.644 268.089 329.061 266.144 328.987C264.679 328.931 263.046 329.258 262.162 330.437C261.753 331.1 261.482 331.84 261.366 332.611C260.211 337.469 258.857 342.272 257.504 347.074L256.205 351.678L252.725 364.039C252.383 365.353 252.614 365.759 252.263 367.002Z" fill="#BB6BD9"/>
<path d="M272.627 318.777L349.662 399.735V406.601H315.313L257.424 331.042" fill="#F1C0C0"/>
<path opacity="0.1" d="M272.627 318.777L349.662 399.735V406.601H315.313L257.424 331.042" fill="black"/>
<path opacity="0.1" d="M258.651 329.975L258.897 330.062L315.807 399.735H349.662V406.601H315.313L257.424 331.042L258.651 329.975Z" fill="black"/>
<path d="M267.514 331.679C264.727 332.898 261.629 334.459 260.793 337.39C260.628 337.904 260.592 338.451 260.689 338.983C260.893 339.607 261.281 340.156 261.803 340.555C262.325 340.955 262.956 341.187 263.612 341.221C264.923 341.252 266.227 341.014 267.443 340.52L283.888 335.088C284.334 334.945 284.844 334.73 284.955 334.292C284.984 334.016 284.928 333.738 284.796 333.495C284.286 332.253 283.784 329.712 282.717 328.844C281.841 328.143 280.105 328.39 279.046 328.406C274.968 328.438 271.138 330.086 267.514 331.679Z" fill="#BB6BD9"/>
<path d="M282.176 335.733C284.946 335.725 287.701 336.152 290.339 337C292.988 337.86 295.335 339.463 297.1 341.619C297.614 342.221 297.979 342.936 298.167 343.706C298.326 344.502 300.923 344.98 300.349 345.522C302.093 345.243 301.679 346.063 303.447 346.047C305.215 346.031 307.126 345.577 308.186 344.168C308.922 343.009 309.249 341.639 309.117 340.273C309.141 339.327 308.961 338.388 308.592 337.517C307.795 335.845 305.964 334.945 304.275 334.172L290.052 327.665C289.227 327.226 288.341 326.912 287.424 326.733C286.652 326.66 285.874 326.679 285.106 326.789L278.664 327.53C280.073 328.442 281.22 329.705 281.992 331.195C282.764 332.685 283.135 334.351 283.068 336.028" fill="#3F3D56"/>
</g>
<defs>
<clipPath id="clip0">
<rect width="938" height="577" fill="white"/>
</clipPath>
</defs>
</svg>
