<svg width="19" height="15" viewBox="0 0 19 15" fill="none" xmlns="http://www.w3.org/2000/svg">
<path d="M7.07386 7.49998C7.07386 8.13288 7.32528 8.73986 7.77281 9.18739C8.22034 9.63492 8.82732 9.88634 9.46022 9.88634C10.0931 9.88634 10.7001 9.63492 11.1476 9.18739C11.5952 8.73986 11.8466 8.13288 11.8466 7.49998C11.8466 6.86708 11.5952 6.2601 11.1476 5.81256C10.7001 5.36504 10.0931 5.11362 9.46022 5.11362C8.82732 5.11362 8.22034 5.36504 7.77281 5.81256C7.32528 6.2601 7.07386 6.86708 7.07386 7.49998ZM18.7116 6.95026C16.6918 2.69529 13.6385 0.553955 9.54545 0.553955C5.45028 0.553955 2.39915 2.69529 0.379262 6.95239C0.298244 7.12395 0.256226 7.31132 0.256226 7.50104C0.256226 7.69077 0.298244 7.87814 0.379262 8.0497C2.39915 12.3047 5.45241 14.446 9.54545 14.446C13.6406 14.446 16.6918 12.3047 18.7116 8.04756C18.8757 7.70239 18.8757 7.30183 18.7116 6.95026ZM9.46022 11.25C7.3892 11.25 5.71023 9.571 5.71023 7.49998C5.71023 5.42896 7.3892 3.74998 9.46022 3.74998C11.5312 3.74998 13.2102 5.42896 13.2102 7.49998C13.2102 9.571 11.5312 11.25 9.46022 11.25Z" fill="#4F4F4F"/>
</svg>
