<svg width="21" height="17" viewBox="0 0 21 17" fill="none" xmlns="http://www.w3.org/2000/svg">
<path d="M10.3889 0C7.84833 0 6.05389 1.15222 6.05389 1.15222L4.72222 5.66667H16.0556L14.7239 1.15222C14.7239 1.15222 12.9294 0 10.3889 0ZM10.3889 7.55556C7.81056 7.55556 4.14611 8.06556 3.90056 8.11278C2.91833 8.37722 2.125 8.64167 1.50167 8.88722C0.547778 9.20833 0 9.44444 0 9.44444H20.7778C20.7778 9.44444 20.23 9.20833 19.2761 8.88722C18.6528 8.64167 17.8406 8.37722 16.8489 8.11278C16.8489 8.11278 13.0522 7.55556 10.3889 7.55556ZM6.13889 10.3889C5.2622 10.3889 4.42142 10.7372 3.80151 11.3571C3.1816 11.977 2.83333 12.8178 2.83333 13.6944C2.83333 14.5711 3.1816 15.4119 3.80151 16.0318C4.42142 16.6517 5.2622 17 6.13889 17C7.01558 17 7.85636 16.6517 8.47627 16.0318C9.09618 15.4119 9.44444 14.5711 9.44444 13.6944C9.44444 13.5433 9.44444 13.3922 9.41611 13.2506C9.71833 13.1844 10.0394 13.1278 10.3889 13.1372C10.7383 13.1372 11.0594 13.1844 11.3617 13.2506C11.3333 13.3922 11.3333 13.5433 11.3333 13.6944C11.3333 14.5711 11.6816 15.4119 12.3015 16.0318C12.9214 16.6517 13.7622 17 14.6389 17C15.5156 17 16.3564 16.6517 16.9763 16.0318C17.5962 15.4119 17.9444 14.5711 17.9444 13.6944C17.9444 12.8178 17.5962 11.977 16.9763 11.3571C16.3564 10.7372 15.5156 10.3889 14.6389 10.3889C13.2506 10.3889 12.0606 11.2389 11.5694 12.4572C11.2672 12.3628 10.9083 12.2778 10.3889 12.2778C9.86944 12.2778 9.51056 12.3628 9.20833 12.4572C8.96167 11.8454 8.53751 11.3215 7.99046 10.9528C7.44341 10.5842 6.79854 10.3878 6.13889 10.3889ZM6.13889 11.3333C6.76509 11.3333 7.36565 11.5821 7.80845 12.0249C8.25124 12.4677 8.5 13.0682 8.5 13.6944C8.5 14.3207 8.25124 14.9212 7.80845 15.364C7.36565 15.8068 6.76509 16.0556 6.13889 16.0556C5.51268 16.0556 4.91213 15.8068 4.46933 15.364C4.02654 14.9212 3.77778 14.3207 3.77778 13.6944C3.77778 13.0682 4.02654 12.4677 4.46933 12.0249C4.91213 11.5821 5.51268 11.3333 6.13889 11.3333ZM14.6389 11.3333C15.2651 11.3333 15.8657 11.5821 16.3084 12.0249C16.7512 12.4677 17 13.0682 17 13.6944C17 14.3207 16.7512 14.9212 16.3084 15.364C15.8657 15.8068 15.2651 16.0556 14.6389 16.0556C14.0127 16.0556 13.4121 15.8068 12.9693 15.364C12.5265 14.9212 12.2778 14.3207 12.2778 13.6944C12.2778 13.0682 12.5265 12.4677 12.9693 12.0249C13.4121 11.5821 14.0127 11.3333 14.6389 11.3333Z" fill="#F2C94C"/>
</svg>
