<svg width="600" height="551" viewBox="0 0 600 551" fill="none" xmlns="http://www.w3.org/2000/svg">
<g clip-path="url(#clip0)">
<path opacity="0.1" d="M336.092 86.0921C303.207 84.952 271.889 74.3407 241.999 62.7404C212.109 51.1402 182.452 38.2693 150.357 32.0879C129.712 28.1319 106.106 27.5687 89.4712 38.6333C73.4684 49.2858 68.2899 67.6718 65.5151 84.7322C63.4547 97.5688 62.191 111.078 67.9258 123.091C71.9025 131.436 78.9698 138.448 83.853 146.442C100.859 174.245 88.8393 208.53 70.4121 235.68C61.772 248.414 51.7445 260.563 45.0756 274.142C38.4066 287.72 35.3159 303.228 41.1539 317.061C46.9368 330.797 60.7212 341.058 75.6525 348.304C105.982 363.009 141.717 367.219 176.566 369.595C253.709 374.87 331.257 372.59 408.606 370.282C437.225 369.43 465.975 368.572 494.135 364.149C509.773 361.69 525.92 357.789 537.273 348.352C551.697 336.395 555.254 316.154 545.598 301.161C529.396 276.017 484.615 269.767 473.29 242.782C467.061 227.926 473.462 211.381 482.514 197.61C501.944 168.077 534.506 142.129 536.223 108.324C537.404 85.1306 521.745 61.8957 497.541 50.9135C472.17 39.4094 436.985 40.8585 418.269 59.9039C398.997 79.5605 365.124 87.1017 336.092 86.0921Z" fill="#BB6BD9"/>
<path opacity="0.1" d="M270.776 550.44C386.077 550.44 479.547 537.796 479.547 522.198C479.547 506.601 386.077 493.957 270.776 493.957C155.475 493.957 62.0055 506.601 62.0055 522.198C62.0055 537.796 155.475 550.44 270.776 550.44Z" fill="#BB6BD9"/>
<path d="M322.301 143.956C322.301 143.956 315.838 131.202 316.71 127.411C317.583 123.62 312.164 115.522 312.164 115.522L312.514 102.088C312.514 102.088 311.765 103.462 307.864 104.664C307.535 104.231 307.177 103.805 306.807 103.4C305.394 101.929 303.823 100.618 302.123 99.4919L295.254 84.6704L288.613 74.4987C288.613 74.4987 278.139 53.2075 267.322 48.5097L265.618 45.1786C265.674 45.1455 265.716 45.0926 265.735 45.0303C265.754 44.9681 265.749 44.9009 265.721 44.8421L263.991 41.4561C263.96 41.3975 263.908 41.3525 263.846 41.3297C263.784 41.3068 263.716 41.3078 263.654 41.3325L261.999 38.0907C261.367 33.8896 259.716 29.907 257.191 26.4904C257.019 26.25 256.834 26.0302 256.655 25.8036L259.348 25.7074C261.71 25.6182 264.348 25.4121 265.934 23.647C266.503 22.9891 266.922 22.2159 267.164 21.3805C267.368 20.7259 267.501 20.0512 267.562 19.3682C267.562 19.2651 267.562 19.1621 267.562 19.066C267.562 18.8324 267.562 18.6035 267.562 18.3791C267.562 18.1937 267.562 18.0151 267.562 17.8297C267.562 17.6442 267.562 17.5344 267.562 17.3901C267.562 17.2459 267.487 16.9162 267.445 16.7033C267.445 16.614 267.445 16.5247 267.39 16.4355C267.333 16.1664 267.262 15.9005 267.177 15.6388C267.157 15.5874 267.141 15.5346 267.129 15.4808C267.033 15.2061 266.93 14.9313 266.813 14.6635C266.795 14.6282 266.778 14.5914 266.765 14.5536C266.642 14.2857 266.504 14.0247 266.36 13.7706L266.319 13.6882C266.268 13.5816 266.211 13.4784 266.147 13.3791C264.286 10.4533 261.017 8.74314 257.905 7.19781C255.002 5.67137 252.022 4.29591 248.977 3.07693C237.654 -1.16924 225.147 -0.992676 213.949 3.57143C212.843 3.99023 211.795 4.5488 210.831 5.23352C209.487 6.37122 208.339 7.72154 207.431 9.23078L202.109 17.0948C201.365 18.0514 200.783 19.1233 200.385 20.2679C199.389 24.0041 202.514 27.7473 202.164 31.6003C201.985 33.5165 200.955 35.2748 200.756 37.191C200.502 39.6635 201.648 42.0467 202.768 44.2789L210.385 59.3888C209.98 61.3737 209.533 63.4067 209.045 65.371C205.536 68.9973 204.355 70.9753 204.032 72.0468L203.929 72.1017C203.234 72.5506 202.636 73.1345 202.17 73.8188L194.931 80.8517C194.931 80.8517 182.349 84.121 179.732 88.2625C179.732 88.2625 159.986 87.3971 160.158 114.973C160.158 114.973 159.286 125.316 158.784 126.697C158.283 128.077 158.784 142.033 158.784 142.033L158.551 170.302C158.551 170.302 157.795 185.296 158.551 190.639C159.306 195.982 160.179 216.319 160.179 216.319C160.179 216.319 164.897 236.14 163.153 243.208C161.477 249.973 163.153 264.767 165.9 264.829C166.422 265.907 167.019 266.436 167.672 266.134C167.956 266.01 168.247 265.905 168.544 265.818V282.706C168.544 282.706 165.144 306.367 168.956 310.866C166.429 314.465 163.462 320.605 162.706 322.219L135.989 320.783L132.589 321.738L129.471 322.61L127.582 366.065L128.338 366.12L128.283 367.445L130.069 367.576L127.582 411.34L164.567 414.382C162.94 418.029 161.051 421.937 160.316 422.315C158.942 423.002 155.948 420.941 155.247 421.793C154.547 422.645 152.452 423.689 150.007 423.167C147.562 422.645 145.989 425.406 145.989 425.406C145.989 425.406 146.346 425.722 146.882 426.305C142.912 425.825 137.892 427.954 135.165 429.327C133.942 429.945 133.18 430.406 133.18 430.406H125.968L129.931 455.687L132.727 457.597L133.414 477.514C133.414 477.514 144.595 511.985 149.718 511.759C150.051 511.747 150.377 511.664 150.675 511.514C150.972 511.365 151.234 511.153 151.442 510.893C154.19 507.72 152.287 496.821 152.287 496.821V478.675C152.287 478.675 156.477 476.834 156.01 475.454C155.543 474.073 162.768 458.97 163.414 457.597C163.432 457.585 163.447 457.569 163.457 457.549C163.466 457.53 163.47 457.508 163.469 457.487C163.469 455.935 166.614 454.211 166.436 453.524C166.257 452.837 174.128 448.524 174.677 444.733C175.227 440.941 180.44 443.009 180.44 443.009L187.074 435.385C187.273 444.678 187.651 451.182 188.304 452.83C191.449 460.763 192.672 473.174 192.672 473.174C192.672 473.174 190.749 482.652 192.672 485.756C193.853 487.652 196.6 489.685 198.51 491.367C196.525 497.384 196.806 510.172 196.806 510.172V517.521L211.484 521.642C211.484 521.642 211.944 517.968 212.644 517.968C213.345 517.968 222.665 525.09 222.665 525.09C222.665 525.09 258.544 525.55 267.624 525.09C271.058 524.918 271.992 523.441 271.463 521.656C270.591 518.682 265.694 514.829 261.34 514.533C254.348 514.073 245.495 506.724 245.495 506.724C245.495 506.724 246.182 505.11 242.466 502.816C239.897 501.237 232.789 494.843 228.393 491.099C228.599 490.818 228.812 490.536 229.011 490.234C229.011 490.234 223.07 481.992 224.3 478.338C225.529 474.685 223.771 469.41 223.771 469.41C223.771 469.41 220.453 459.238 220.453 454.066C220.453 450.79 219.959 432.157 219.602 418.943L222.665 419.197L222.727 417.878L224.1 418.002L237.088 419.197L236.69 405.316C242.947 402.569 248.153 400.021 250.309 398.393C257.644 392.899 263.936 392.535 263.936 392.535C263.936 392.535 278.785 384.609 281.058 381.333C283.331 378.057 283.118 354.272 283.118 354.272L281.896 303.297V303.256C281.896 303.256 280.852 278.613 278.75 273.27C277.981 271.292 276.079 264.698 273.997 257.171C275.194 257.047 276.401 257.098 277.583 257.322C277.658 259.162 277.706 260.426 277.706 260.859C277.706 263.785 281.896 266.271 281.896 266.271L278.929 200.337V155.481C288.077 158.393 310.199 159.3 310.199 159.3C326.14 158.462 322.301 143.956 322.301 143.956ZM236.01 87.3078H235.962C236.287 85.5792 236.711 83.8708 237.232 82.191L236.01 87.3078ZM175.969 313.455C181.387 314.348 187.644 314.087 188.118 313.036C188.166 312.933 188.228 312.748 188.311 312.507C188.482 312.809 188.647 313.118 188.819 313.434L188.29 323.379V323.606L170.433 322.645C171.683 317.322 174.045 314.726 175.969 313.455ZM235.495 363.634L235.035 347.528C235.831 344.561 236.546 341.868 237.157 339.561C237.432 341.477 237.665 343.242 237.844 344.87C239.533 360.151 237.04 363.132 235.495 363.634ZM286.319 122.164C285.296 122.555 281.401 120.103 277.706 117.562C277.706 117.095 277.741 116.635 277.761 116.188C278.283 105.673 261.161 99.1279 255.921 97.9191C254.649 97.5909 253.415 97.1305 252.239 96.5454C249.447 95.1625 246.733 93.6287 244.107 91.9506L244.176 91.7515C244.176 91.7515 237.418 87.4726 237.274 82.1361C238.814 77.2821 240.757 72.5656 243.084 68.0358C243.214 67.7679 243.359 67.4863 243.496 67.2185C246.69 66.2251 249.671 64.646 252.287 62.5619C253.338 76.2982 273.215 88.1182 273.215 88.1182L275.337 91.5523L275.838 92.3627C274.767 92.9946 274.252 93.5029 274.616 93.7982C276.127 95.007 279.78 101.848 281.291 104.739C281.704 105.522 281.978 106.01 281.978 106.01C281.978 106.01 285.227 114.849 287.088 122.246C286.841 122.143 286.569 122.114 286.305 122.164H286.319Z" fill="url(#paint0_linear)"/>
<path d="M293.997 86.5385L293.764 86.8476L292.967 87.9122L277.686 98.7089L274.444 93.3792L272.383 89.9451C272.383 89.9451 241.923 71.6759 255.021 54.066C268.118 36.4561 287.473 76.3874 287.473 76.3874L293.997 86.5385Z" fill="#FFC5D3"/>
<path d="M263.263 43.5181C263.198 43.3893 263.041 43.3375 262.913 43.4024C262.784 43.4672 262.732 43.6241 262.797 43.7529L264.496 47.1267C264.561 47.2554 264.718 47.3072 264.846 47.2424C264.975 47.1775 265.027 47.0206 264.962 46.8919L263.263 43.5181Z" fill="#3A3768"/>
<path d="M245.824 48.2352L245.818 48.2383C245.747 48.2741 245.718 48.3608 245.754 48.432L246.261 49.438C246.296 49.5091 246.383 49.5378 246.454 49.5019L246.46 49.4989C246.532 49.463 246.56 49.3763 246.524 49.3052L246.018 48.2992C245.982 48.228 245.895 48.1994 245.824 48.2352Z" fill="#3A3768"/>
<path d="M247.211 50.6173C247.17 50.536 247.071 50.5033 246.99 50.5442C246.909 50.5852 246.876 50.6843 246.917 50.7656L247.877 52.6733C247.918 52.7546 248.018 52.7873 248.099 52.7464C248.18 52.7054 248.213 52.6063 248.172 52.525L247.211 50.6173Z" fill="#3A3768"/>
<path d="M248.692 53.5866C248.653 53.5087 248.558 53.4774 248.48 53.5166C248.402 53.5558 248.371 53.6508 248.41 53.7287L249.386 55.6672C249.426 55.7451 249.521 55.7764 249.599 55.7372C249.677 55.6979 249.708 55.603 249.669 55.525L248.692 53.5866Z" fill="#3A3768"/>
<path d="M257.933 36.8936L245.101 43.3562C244.342 43.7384 244.036 44.6634 244.418 45.4222L258.981 74.3388C259.363 75.0976 260.288 75.403 261.047 75.0208L273.88 68.5582C274.639 68.1761 274.944 67.2511 274.562 66.4922L259.999 37.5757C259.617 36.8168 258.692 36.5114 257.933 36.8936Z" fill="#3A3768"/>
<path d="M256.291 38.7294C256.218 38.7659 256.152 38.8166 256.098 38.8786C256.045 38.9407 256.004 39.0128 255.978 39.0908C255.953 39.1688 255.943 39.2511 255.949 39.3329C255.956 39.4147 255.979 39.4944 256.017 39.5673L256.071 39.6841C256.109 39.7575 256.132 39.8377 256.139 39.9201C256.146 40.0024 256.136 40.0852 256.11 40.1638C256.085 40.2424 256.044 40.3151 255.99 40.3777C255.936 40.4404 255.871 40.4918 255.797 40.5289L249.19 43.8531C249.117 43.8908 249.037 43.9136 248.955 43.9202C248.873 43.9267 248.791 43.917 248.713 43.8914C248.635 43.8658 248.563 43.825 248.501 43.7712C248.439 43.7175 248.388 43.6519 248.352 43.5783L248.29 43.4616C248.253 43.3881 248.203 43.3225 248.141 43.2685C248.079 43.2146 248.007 43.1734 247.929 43.1472C247.851 43.1211 247.769 43.1105 247.687 43.1161C247.605 43.1218 247.525 43.1434 247.452 43.18L246.168 43.8325C246.027 43.9017 245.901 43.9984 245.798 44.1167C245.695 44.235 245.617 44.3727 245.568 44.5217C245.518 44.6707 245.499 44.8279 245.512 44.9844C245.524 45.1408 245.567 45.2932 245.639 45.4327L259.677 73.2967C259.821 73.5789 260.071 73.7928 260.372 73.8918C260.673 73.9909 261.001 73.9671 261.284 73.8256L272.809 68.022C273.091 67.8779 273.305 67.6282 273.404 67.3273C273.503 67.0263 273.479 66.6984 273.338 66.4149L259.293 38.5371C259.222 38.3968 259.124 38.2717 259.005 38.1691C258.886 38.0665 258.748 37.9885 258.599 37.9393C258.449 37.8902 258.292 37.871 258.135 37.8828C257.978 37.8947 257.826 37.9373 257.685 38.0083L256.291 38.7294Z" fill="#BB6BD9"/>
<path d="M252.452 40.8397L250.716 41.7139C250.594 41.7753 250.545 41.924 250.606 42.0459C250.668 42.1679 250.816 42.217 250.938 42.1555L252.674 41.2813C252.796 41.2199 252.845 41.0712 252.784 40.9493C252.722 40.8273 252.574 40.7782 252.452 40.8397Z" fill="#E6E8EC"/>
<path d="M253.352 40.9204C253.507 40.9204 253.633 40.7943 253.633 40.6388C253.633 40.4833 253.507 40.3572 253.352 40.3572C253.196 40.3572 253.07 40.4833 253.07 40.6388C253.07 40.7943 253.196 40.9204 253.352 40.9204Z" fill="#E6E8EC"/>
<path d="M266.181 145.605L261.889 260.797C261.889 260.797 276.312 255.989 278.544 259.595C280.776 263.201 276.14 201.903 276.14 201.903L266.181 145.605Z" fill="#5F5570"/>
<path opacity="0.15" d="M266.181 145.605L261.889 260.797C261.889 260.797 276.312 255.989 278.544 259.595C280.776 263.201 276.14 201.903 276.14 201.903L266.181 145.605Z" fill="black"/>
<path d="M266.868 525.296C257.94 525.756 222.686 525.296 222.686 525.296C222.686 525.296 213.523 518.201 212.837 518.201C212.15 518.201 211.697 521.862 211.697 521.862L197.273 517.741V510.419C197.273 510.419 196.813 489.574 201.161 488.668C205.508 487.761 224.746 488.668 224.746 488.668C225.433 488.441 238.482 500.804 242.143 503.091C245.804 505.378 245.117 506.985 245.117 506.985C245.117 506.985 253.819 514.307 260.687 514.767C264.966 515.055 269.78 518.888 270.639 521.862C271.161 523.654 270.234 525.124 266.868 525.296Z" fill="#BC8487"/>
<path opacity="0.1" d="M266.868 525.296C257.94 525.756 222.686 525.296 222.686 525.296C222.686 525.296 213.523 518.201 212.837 518.201C212.15 518.201 211.697 521.862 211.697 521.862L197.273 517.741V510.564L210.776 515.454L221.539 521.862H270.639C271.161 523.654 270.234 525.124 266.868 525.296Z" fill="black"/>
<g opacity="0.1">
<path d="M226.779 514.54C226.779 514.54 237.768 504.012 245.117 506.985L226.779 514.54Z" fill="black"/>
<path d="M226.779 514.54C226.779 514.54 237.768 504.012 245.117 506.985" stroke="black" stroke-miterlimit="10"/>
</g>
<path d="M157.205 475.845C157.665 477.219 153.544 479.052 153.544 479.052V497.136C153.544 497.136 155.412 507.995 152.713 511.161C152.51 511.418 152.254 511.628 151.963 511.776C151.671 511.924 151.35 512.007 151.023 512.019C145.989 512.246 135 477.905 135 477.905L134.313 458.063L131.566 456.161L127.672 430.976H134.773C134.773 430.976 135.522 430.515 136.724 429.897C140.158 428.146 147.349 425.09 151.257 428.002L164.533 457.912C164.533 457.912 156.751 474.471 157.205 475.845Z" fill="#BC8487"/>
<path opacity="0.1" d="M152.713 511.161C152.51 511.418 152.254 511.627 151.963 511.776C151.671 511.924 151.35 512.007 151.023 512.019C145.989 512.246 135 477.905 135 477.905L134.313 458.063L131.566 456.161L127.672 430.976H134.773C134.773 430.976 135.522 430.516 136.724 429.897L138.434 455.701L139.348 477.905C139.348 477.905 147.974 502.081 152.713 511.161Z" fill="black"/>
<path d="M280.089 382.04C277.857 385.303 263.262 393.201 263.262 393.201C263.262 393.201 257.081 393.544 249.87 399.039C246.14 401.882 233.18 407.521 221.539 412.308C210.666 416.779 200.934 420.502 200.934 420.502L189.725 433.551L181.188 443.489C181.188 443.489 176.037 441.429 175.522 445.206C175.007 448.984 167.28 453.276 167.452 453.963C167.624 454.65 164.533 456.367 164.533 457.912C164.533 459.458 153.029 446.752 153.201 439.025C153.372 431.298 147.363 425.976 147.363 425.976C147.363 425.976 148.908 423.228 151.312 423.743C153.716 424.259 155.776 423.228 156.463 422.37C157.15 421.511 160.069 423.572 161.442 422.885C162.816 422.198 168.311 408.634 168.311 408.634L189.719 394.272L232.301 365.728L234.265 364.41C234.265 364.41 239.931 367.006 237.631 345.735C237.184 341.614 236.436 336.607 235.295 330.509C228.256 292.905 253.496 288.613 253.496 288.613L275.646 295.996L280.968 304.238V304.279L282.17 355.062C282.17 355.062 282.322 378.778 280.089 382.04Z" fill="#433A59"/>
<path opacity="0.1" d="M221.367 406.079C221.367 406.079 221.436 408.517 221.539 412.308C210.666 416.779 200.934 420.502 200.934 420.502L189.725 433.551C189.54 422.734 189.581 408.682 189.725 394.279L232.308 365.735C227.04 385.261 221.367 406.079 221.367 406.079Z" fill="black"/>
<path opacity="0.1" d="M280.948 304.258V304.3L247.637 304.945C247.637 304.945 241.8 327.782 240.941 332.59C240.728 333.771 239.437 338.819 237.61 345.756C237.164 341.635 236.415 336.628 235.275 330.529C228.235 292.926 253.475 288.633 253.475 288.633L275.625 296.017L280.948 304.258Z" fill="black"/>
<path d="M193.207 241.93L188.915 324.348C188.915 324.348 185.824 445.399 188.915 453.297C192.006 461.195 193.207 473.558 193.207 473.558C193.207 473.558 191.319 483.002 193.207 486.092C195.096 489.183 201.106 492.617 200.934 494.334C200.762 496.051 219.306 505.323 228.922 490.557C228.922 490.557 223.084 482.315 224.286 478.709C225.488 475.103 223.771 469.781 223.771 469.781C223.771 469.781 220.508 459.65 220.508 454.478C220.508 449.307 219.306 406.058 219.306 406.058C219.306 406.058 238.022 337.377 238.881 332.569C239.739 327.761 245.577 304.925 245.577 304.925L280.948 304.238C280.948 304.238 279.918 279.684 277.857 274.361C275.797 269.039 265.666 230.062 265.666 230.062L193.207 241.93Z" fill="#433A59"/>
<path d="M134.176 322.727L131.106 323.606L130.982 326.642L223.029 327.83V326.635L134.176 322.727Z" fill="#7B728F"/>
<path d="M242.747 69.9657C229.354 97.1292 237.672 102.809 238.997 103.51C236.161 102.191 199.293 84.8696 204.142 80.474C207.294 77.61 209.993 65.1511 211.58 56.2226C212.521 50.8929 213.07 46.8201 213.07 46.8201L251.758 53.9149C248.008 59.9588 245.028 65.2816 242.747 69.9657Z" fill="#FFC5D3"/>
<path opacity="0.1" d="M293.791 86.8476L292.995 87.9122L277.686 98.7089L274.444 93.3792C279.162 90.632 293.311 85.8243 293.311 85.8243L293.791 86.8476Z" fill="black"/>
<path d="M307.905 111.607C306.532 116.415 283.352 111.607 283.352 111.607L280.948 107.83C280.948 107.83 280.707 107.349 280.302 106.566C278.819 103.688 275.227 96.8751 273.743 95.6663C271.854 94.121 294.004 86.566 294.004 86.566L300.79 101.333C302.463 102.457 304.006 103.763 305.392 105.227C307.109 107.088 308.53 109.416 307.905 111.607Z" fill="#E5E8EF"/>
<path d="M269.444 113.819C269.444 113.819 283.18 124.657 285.24 123.874C287.301 123.091 320.611 145.584 320.611 145.584C320.611 145.584 324.389 160.007 308.764 160.865C308.764 160.865 275.625 159.492 274.251 154.684C272.878 149.876 269.444 113.819 269.444 113.819Z" fill="#5F5570"/>
<path opacity="0.1" d="M232.012 92.0331L217.074 107.486L238.022 240.728L246.264 235.92C246.264 235.92 267.555 245.364 269.272 236.607C270.989 227.85 270.515 193.338 270.515 193.338L267.727 130.989C267.727 130.989 257.94 109.183 257.94 108.496C257.94 107.809 243.826 97.1636 243.826 97.1636L237.163 92.0125L232.012 92.0331Z" fill="black"/>
<path d="M232.012 89.9726L217.074 105.426L238.022 238.668L246.264 233.86C246.264 233.86 267.555 243.304 269.272 234.547C270.989 225.79 270.515 191.278 270.515 191.278L267.727 128.929C267.727 128.929 257.94 107.122 257.94 106.435C257.94 105.749 243.826 95.1031 243.826 95.1031L237.163 89.952L232.012 89.9726Z" fill="#E5E8EF"/>
<path opacity="0.1" d="M232.871 92.2048L228.75 100.618L232.871 104.966C232.871 104.966 247.638 134.787 244.719 152.473L247.809 210.68L257.768 220.467L265.666 211.346L261.889 158.462C261.889 158.462 251.758 114.849 241.113 101.284L238.022 89.2652L232.871 92.2048Z" fill="black"/>
<path d="M232.871 90.8311L228.75 99.2445L232.871 103.592C232.871 103.592 247.638 133.414 244.719 151.099L247.809 209.306L257.768 219.094L265.666 209.973L261.889 157.088C261.889 157.088 251.758 113.475 241.113 99.9107L238.022 87.8915L232.871 90.8311Z" fill="#BC8487"/>
<path opacity="0.1" d="M251.758 53.9149C248.008 59.9588 245.055 65.2816 242.747 69.9657C240.317 70.6825 237.795 71.0456 235.261 71.044C226.772 71.044 221.882 65.1717 217.074 58.9355C215.975 57.5206 212.363 57.8503 211.58 56.1882C212.521 50.8585 213.07 46.7858 213.07 46.7858L251.758 53.9149Z" fill="black"/>
<path d="M261.587 44.0248C261.586 50.2944 259.348 56.3581 255.276 61.1248C251.203 65.8914 245.562 69.0479 239.37 70.0264C233.177 71.0048 226.838 69.7409 221.494 66.4622C216.15 63.1834 212.152 58.105 210.218 52.1408C208.285 46.1767 208.544 39.7183 210.948 33.928C213.352 28.1376 217.744 23.3955 223.334 20.5548C228.923 17.7142 235.342 16.9616 241.437 18.4325C247.532 19.9033 252.902 23.5011 256.58 28.5783C259.835 33.0709 261.587 38.477 261.587 44.0248Z" fill="#FFC5D3"/>
<path opacity="0.1" d="M226.861 102.679L205.227 76.5797C205.227 76.5797 203.228 75.7762 209.979 68.7089C209.979 68.7089 234.773 88.0358 236.312 91.3187C237.85 94.6017 226.861 102.679 226.861 102.679Z" fill="black"/>
<path d="M226.175 101.305L204.54 75.2061C204.54 75.2061 202.541 74.4026 209.293 67.3353C209.293 67.3353 234.087 86.6622 235.625 89.9451C237.164 93.2281 226.175 101.305 226.175 101.305Z" fill="#E5E8EF"/>
<path d="M280.948 267.411C280.948 267.411 276.827 264.938 276.827 262.019C276.827 259.101 274.767 217.892 274.767 217.892C274.767 217.892 271.745 193.297 268.585 173.75C266.731 162.232 264.828 152.459 263.482 150.522L263.427 150.44C259.821 145.804 260.508 123.139 238.015 90.0001C238.317 90.2061 246.072 95.6457 251.751 98.3792C252.908 98.9602 254.12 99.4205 255.371 99.7528C260.522 100.955 277.349 107.479 276.834 117.953C276.319 128.427 278.036 152.466 278.036 152.466V201.731L280.948 267.411Z" fill="#5F5570"/>
<path d="M280.948 107.83C280.948 107.83 288.159 127.747 287.129 132.727C286.099 137.706 303.784 157.28 303.784 157.28L320.611 145.605C320.611 145.605 314.258 132.898 315.117 129.121C315.975 125.344 310.653 117.273 310.653 117.273L310.996 103.894C310.996 103.894 307.905 109.698 280.948 107.83Z" fill="#5F5570"/>
<path opacity="0.1" d="M256.58 28.5783L243.53 29.0728C242.256 29.0645 240.986 29.2238 239.753 29.5467C235.089 30.9822 232.94 35.941 232.768 40.3984C232.596 44.8558 230.021 49.8489 225.028 50.2404C224.531 50.3248 224.02 50.2114 223.606 49.9245C223.289 49.5876 223.079 49.1647 223.001 48.7088C222.285 46.1115 221.178 43.6382 219.719 41.3736C217.658 41.7445 216.133 43.7019 215.598 45.7487C215.062 47.7954 215.206 49.952 215.213 52.0742C215.219 54.7695 214.959 57.4588 214.437 60.1031C212.308 57.3391 210.749 54.1795 209.852 50.8079C208.955 47.4362 208.737 43.9199 209.21 40.4633C209.684 37.0066 210.84 33.6786 212.611 30.6727C214.383 27.6668 216.734 25.043 219.528 22.9538C222.322 20.8646 225.504 19.3516 228.888 18.5029C232.272 17.6542 235.792 17.4866 239.241 18.01C242.691 18.5333 246.002 19.7372 248.982 21.5514C251.962 23.3657 254.552 25.7543 256.6 28.5783H256.58Z" fill="black"/>
<path d="M239.073 28.8599C240.306 28.537 241.576 28.3777 242.85 28.386L258.695 27.7954C261.017 27.7061 263.606 27.5 265.165 25.7761C265.725 25.1179 266.137 24.3474 266.374 23.5165C266.782 22.189 266.901 20.7897 266.725 19.4121C266.549 18.0346 266.08 16.7107 265.35 15.5289C263.517 12.6099 260.302 10.9135 257.239 9.34754C254.388 7.82443 251.461 6.44899 248.469 5.22666C237.354 1.00574 225.048 1.1826 214.059 5.72116C212.973 6.1379 211.944 6.68938 210.996 7.36265C209.671 8.49754 208.544 9.84352 207.658 11.3462L202.445 19.2033C201.726 20.1627 201.171 21.235 200.804 22.3764C199.822 26.1058 202.864 29.8352 202.548 33.6745C202.37 35.5838 201.36 37.3352 201.175 39.2446C200.927 41.7102 202.054 44.0523 203.159 46.2981L212.322 64.7803C213.801 60.4705 214.551 55.9441 214.54 51.3874C214.54 49.2652 214.361 47.1086 214.925 45.0619C215.488 43.0152 216.985 41.0577 219.045 40.6869C220.509 42.9503 221.618 45.4239 222.335 48.022C222.411 48.4784 222.622 48.9018 222.94 49.2377C223.354 49.5253 223.864 49.6388 224.361 49.5536C229.382 49.1622 231.916 44.2171 232.102 39.7116C232.287 35.2061 234.409 30.2954 239.073 28.8599Z" fill="#8F7080"/>
<path d="M131.106 323.606L137.521 321.772L234.245 327.04L223.599 328.414L131.106 323.606Z" fill="#7B728F"/>
<path opacity="0.1" d="M131.106 323.606L137.521 321.772L234.245 327.04L223.599 328.414L131.106 323.606Z" fill="black"/>
<path d="M236.875 419.76L224.114 418.572L219.636 418.16V347.184L220.817 330.708L221.078 327.04H234.245L236.875 419.76Z" fill="#7B728F"/>
<path opacity="0.1" d="M233.386 417.239L223.208 416.113L219.636 415.721V348.427L220.577 332.809L220.783 329.327H231.284L233.386 417.239Z" fill="black"/>
<path d="M163.585 323.606C163.585 323.606 169.938 309.671 172.603 309.238C175.268 308.805 180.158 309.238 180.158 309.238L179.725 313.276C179.725 313.276 173.201 313.791 171.14 324.691L163.585 323.606Z" fill="#7B728F"/>
<path opacity="0.1" d="M163.585 323.606C163.585 323.606 169.938 309.671 172.603 309.238C175.268 308.805 180.158 309.238 180.158 309.238L179.725 313.276C179.725 313.276 173.201 313.791 171.14 324.691L163.585 323.606Z" fill="black"/>
<path d="M188.228 307.782C188.228 307.782 205.309 316.278 203.077 326.237L193.805 325.721C193.805 325.721 189.341 310.872 185.824 310.096C182.308 309.32 188.228 307.782 188.228 307.782Z" fill="#7B728F"/>
<path d="M251.758 173.249V173.75L251.415 230.941C251.415 230.941 242.658 279.018 240.254 280.907C237.85 282.796 185.137 277.644 185.137 277.644L161.271 116.758C161.099 89.2858 180.501 90.1443 180.501 90.1443C183.077 86.0234 195.44 82.7611 195.44 82.7611L202.308 76.0646L202.528 75.7556C202.984 75.0752 203.573 74.4936 204.258 74.0454C205.673 73.2281 206.573 74.3064 207.088 75.3709C207.32 75.8708 207.499 76.3932 207.624 76.93C235.447 97.3352 251.758 173.249 251.758 173.249Z" fill="#5F5570"/>
<path opacity="0.1" d="M251.072 173.936V174.437C242.438 158.64 209.176 98.7913 200.076 95.8105L203.578 93.4067C203.578 93.4067 205.914 92.033 201.621 90.6594C201.621 90.6594 194.925 91.5179 194.753 83.4479L201.841 76.4423L203.572 74.7322L206.401 76.0577C206.633 76.5576 206.813 77.08 206.937 77.6168C234.76 98.0221 251.072 173.936 251.072 173.936Z" fill="black"/>
<path d="M251.758 173.249V173.75C243.125 157.953 209.863 98.1045 200.763 95.1237L204.265 92.7199C204.265 92.7199 206.6 91.3462 202.308 89.9726C202.308 89.9726 195.611 90.8311 195.44 82.7611L202.528 75.7556L204.258 74.0454L207.088 75.371C207.32 75.8708 207.499 76.3933 207.624 76.93C235.447 97.3353 251.758 173.249 251.758 173.249Z" fill="#433A59"/>
<path opacity="0.1" d="M264.176 151.181L264.121 151.099C260.515 146.463 261.202 123.798 238.709 90.6594C239.011 90.8654 246.765 96.305 252.445 99.0385L250.859 104.272L254.293 106.106L264.176 151.181Z" fill="black"/>
<path d="M263.489 150.495L263.434 150.412C259.828 145.776 260.515 123.111 238.022 89.9726C238.324 90.1787 246.078 95.6182 251.758 98.3517L250.172 103.585L253.606 105.419L263.489 150.495Z" fill="#433A59"/>
<path opacity="0.1" d="M237.033 84.6841L235.625 90.6319C235.625 90.6319 236.655 96.5866 242.83 97.1017L243.826 94.2652C243.826 94.2652 237.163 89.9932 237.033 84.6841Z" fill="black"/>
<path d="M237.033 83.9973L235.625 89.9451C235.625 89.9451 236.655 95.8998 242.83 96.4149L243.826 93.5784C243.826 93.5784 237.163 89.3064 237.033 83.9973Z" fill="#E5E8EF"/>
<path opacity="0.1" d="M228.153 328.002L224.114 418.572L219.636 418.16V347.184L220.817 330.708L228.153 328.002Z" fill="black"/>
<path d="M132.026 362.981L129.279 411.971L222.686 419.76L226.779 328.002L132.026 362.981Z" fill="#7B728F"/>
<path opacity="0.1" d="M129.966 368.249L131.793 324.98L227.466 329.375L222.912 375.117L129.966 368.249Z" fill="black"/>
<path d="M129.279 366.875L131.106 323.606L226.779 328.002L222.225 373.743L129.279 366.875Z" fill="#7B728F"/>
<path d="M181.017 366.93H169.512V380.323H181.017V366.93Z" fill="#C3BBC8"/>
<path d="M171.229 279.19L169.512 283.826C169.512 283.826 165.907 309.238 170.371 312.329C174.835 315.419 188.056 315.591 188.743 314.046C189.43 312.5 194.238 294.987 194.238 294.987C194.238 294.987 198.53 307.864 200.762 306.834C202.995 305.804 195.611 281.326 195.611 281.326L171.229 279.19Z" fill="#FFC5D3"/>
<path opacity="0.1" d="M169.512 259.959V284.513C169.512 284.513 187.713 287.947 195.611 282.013C195.611 282.013 188.228 258.242 190.975 252.232C193.723 246.223 169.512 259.959 169.512 259.959Z" fill="black"/>
<path d="M169.512 259.272V283.826C169.512 283.826 187.713 287.26 195.611 281.326C195.611 281.326 188.228 257.555 190.975 251.545C193.723 245.536 169.512 259.272 169.512 259.272Z" fill="#E5E8EF"/>
<path opacity="0.1" d="M167.452 115.556L162.644 118.132C162.644 118.132 161.786 128.434 161.271 129.808C160.756 131.181 161.271 145.089 161.271 145.089L161.037 173.249C161.037 173.249 160.295 188.187 161.037 193.51C161.779 198.833 162.61 219.094 162.61 219.094C162.61 219.094 167.253 238.839 165.536 245.879C163.819 252.919 165.707 268.716 168.626 267.342C171.545 265.969 198.503 260.646 199.876 259.616C201.25 258.585 200.563 248.97 199.876 247.768C199.19 246.566 195.069 230.254 195.412 226.477C195.756 222.699 194.21 189.561 194.21 189.561C194.21 189.561 196.786 154.19 197.816 145.948C198.846 137.706 195.756 113.496 193.008 113.153C190.261 112.809 182.218 94.0935 167.452 115.556Z" fill="black"/>
<path d="M166.078 114.183L161.271 116.758C161.271 116.758 160.412 127.061 159.897 128.434C159.382 129.808 159.897 143.716 159.897 143.716L159.664 171.875C159.664 171.875 158.922 186.813 159.664 192.136C160.405 197.459 161.236 217.72 161.236 217.72C161.236 217.72 165.879 237.466 164.162 244.506C162.445 251.546 164.334 267.342 167.253 265.969C170.172 264.595 197.129 259.272 198.503 258.242C199.876 257.212 199.19 247.596 198.503 246.394C197.816 245.193 193.695 228.881 194.039 225.103C194.382 221.326 192.837 188.187 192.837 188.187C192.837 188.187 195.412 152.816 196.442 144.574C197.473 136.332 194.382 112.122 191.635 111.779C188.887 111.435 180.845 92.7198 166.078 114.183Z" fill="#5F5570"/>
<g opacity="0.1">
<path opacity="0.1" d="M218.008 38.1113C215.948 38.4822 214.423 40.4396 213.887 42.4863C213.352 44.533 213.496 46.6896 213.503 48.8119C213.516 53.3681 212.769 57.8946 211.291 62.2048L202.122 43.7226C201.944 43.3586 201.758 42.9808 201.58 42.6031C202.004 43.875 202.53 45.1106 203.153 46.2981L212.321 64.7803C213.799 60.4702 214.546 55.9437 214.533 51.3874C214.533 49.2652 214.361 47.1086 214.918 45.0619C215.474 43.0152 216.978 41.0577 219.039 40.6869C219.704 41.7286 220.298 42.8139 220.817 43.9355C220.12 41.8878 219.176 39.9321 218.008 38.1113Z" fill="black"/>
<path opacity="0.1" d="M265.515 15.8242C265.918 17.5139 265.861 19.2807 265.35 20.9409C265.111 21.7722 264.696 22.5427 264.135 23.2006C262.576 24.9245 260.014 25.1305 257.665 25.2198L241.827 25.8105C240.55 25.8021 239.278 25.9614 238.043 26.2844C233.386 27.7198 231.23 32.6786 231.058 37.136C230.886 41.5934 228.311 46.5866 223.317 46.9781C222.82 47.0625 222.31 46.9491 221.896 46.6621C222.054 47.1086 222.205 47.5619 222.335 48.0358C222.406 48.4924 222.614 48.9166 222.933 49.2514C223.347 49.5384 223.858 49.6517 224.355 49.5673C229.382 49.1759 231.909 44.2308 232.095 39.7253C232.28 35.2198 234.423 30.3091 239.08 28.8736C240.315 28.5507 241.587 28.3913 242.864 28.3997L258.702 27.8091C261.023 27.7198 263.613 27.5138 265.172 25.7899C265.734 25.132 266.148 24.3615 266.387 23.5302C266.777 22.2544 266.9 20.9122 266.75 19.5868C266.6 18.2613 266.18 16.9807 265.515 15.8242Z" fill="black"/>
</g>
<path opacity="0.1" d="M239.725 297.521C239.725 297.521 245.673 294.43 247.967 294.602C250.261 294.774 270.859 320.969 270.859 320.969L239.725 297.521Z" fill="black"/>
<path opacity="0.1" d="M178.716 120.24C178.716 120.24 167.844 124.883 168.132 128.091C168.42 131.298 178.716 120.24 178.716 120.24Z" fill="black"/>
<path opacity="0.1" d="M173.42 135.419C173.42 135.419 162.012 150.007 164.533 150.495C167.054 150.982 173.42 135.419 173.42 135.419Z" fill="black"/>
<path opacity="0.1" d="M211.58 157.28C211.58 157.28 212.624 189.904 204.258 194.025L211.58 157.28Z" fill="black"/>
<path opacity="0.1" d="M168.104 244.389C168.104 244.389 176.154 239.815 178.002 240.728C179.849 241.642 168.104 244.389 168.104 244.389Z" fill="black"/>
<path opacity="0.1" d="M169.512 250.715C169.512 250.715 174.595 251.079 177.006 250.028C179.416 248.977 169.512 250.715 169.512 250.715Z" fill="black"/>
<path opacity="0.1" d="M290.838 130.584C290.838 130.584 297.143 148.695 300.776 148.695L290.838 130.584Z" fill="black"/>
<path opacity="0.1" d="M201.181 477.452C201.181 477.452 213.008 474.245 214.753 477.452C216.497 480.659 201.181 477.452 201.181 477.452Z" fill="black"/>
<path opacity="0.1" d="M163.585 429.897C163.585 429.897 160.639 434.41 164.533 435.783C168.427 437.157 163.585 429.897 163.585 429.897Z" fill="black"/>
<path opacity="0.1" d="M242.143 366.93C242.143 366.93 251.072 374.884 255.289 375.117C259.506 375.351 242.143 366.93 242.143 366.93Z" fill="black"/>
<path d="M593.819 41.092C593.819 41.092 535.996 37.5824 542.81 78.1045C542.81 78.1045 541.436 85.2679 547.947 88.5234C547.947 88.5234 548.05 85.5152 553.881 86.5385C555.955 86.8827 558.061 86.9841 560.158 86.8407C562.989 86.6482 565.682 85.542 567.83 83.6883C567.83 83.6883 584.087 76.9781 590.405 50.4052C590.405 50.4052 595.083 44.6085 594.897 43.1181L585.138 47.2871C585.138 47.2871 588.476 54.3269 585.824 60.1786C585.824 60.1786 585.509 47.5412 583.634 47.8159C583.249 47.8778 578.558 50.2541 578.558 50.2541C578.558 50.2541 584.3 62.5206 579.966 71.4286C579.966 71.4286 581.614 56.3187 576.772 51.1401L569.904 55.1511C569.904 55.1511 576.614 67.816 572.068 78.1525C572.068 78.1525 573.235 62.3009 568.462 56.1264L562.239 60.9822C562.239 60.9822 568.537 73.4685 564.698 82.0399C564.698 82.0399 564.197 63.5852 560.886 62.191C560.886 62.191 555.447 66.9987 554.616 68.963C554.616 68.963 558.929 78.0289 556.25 82.8091C556.25 82.8091 554.609 70.5152 553.263 70.4465C553.263 70.4465 547.837 78.5921 547.274 84.1828C547.274 84.1828 547.507 75.8723 551.951 69.6704C551.951 69.6704 546.704 70.5701 543.641 73.9767C543.641 73.9767 544.485 68.2143 553.256 67.7129C553.256 67.7129 557.734 61.5316 558.936 61.1539C558.936 61.1539 550.179 60.4258 544.87 62.7748C544.87 62.7748 549.547 57.3421 560.543 59.8146L566.724 54.8009C566.724 54.8009 555.193 53.2212 550.309 54.9657C550.309 54.9657 555.934 50.158 568.379 53.6607L575.069 49.6566C575.069 49.6566 565.241 47.5412 559.389 48.283C559.389 48.283 565.57 44.9519 577.026 48.5646L581.834 46.4148C581.834 46.4148 574.636 45 572.528 44.7802C570.419 44.5605 570.303 43.9698 570.303 43.9698C574.865 43.2095 579.549 43.7302 583.833 45.4739C583.833 45.4739 593.997 41.7033 593.819 41.092Z" fill="#BB6BD9"/>
<path d="M479.046 33.3242C479.046 33.3242 452.947 31.7514 455.996 50.0618C455.996 50.0618 455.385 53.2967 458.318 54.7665C458.318 54.7665 458.366 53.3929 460.996 53.8668C461.935 54.028 462.89 54.0742 463.84 54.0042C465.108 53.9092 466.312 53.4083 467.274 52.5756C467.274 52.5756 474.616 49.5399 477.473 37.5344C477.473 37.5344 479.588 34.9176 479.533 34.2445L475.11 36.1264C475.11 36.1264 476.614 39.3063 475.433 41.9506C475.433 41.9506 475.289 36.2431 474.437 36.3736C474.265 36.3736 472.15 37.4794 472.15 37.4794C472.15 37.4794 474.739 43.022 472.782 47.0467C472.782 47.0467 473.53 40.2198 471.34 37.8778L468.242 39.691C468.242 39.691 471.271 45.4121 469.217 50.0824C469.217 50.0824 469.746 42.919 467.59 40.1305L464.78 42.3283C464.78 42.3283 467.624 47.9671 465.886 51.8407C465.886 51.8407 465.66 43.5028 464.169 42.8709C464.169 42.8709 461.71 45.0412 461.333 45.9341C461.333 45.9341 463.283 50.055 462.074 52.191C462.074 52.191 461.333 46.6346 460.701 46.6072C460.701 46.6072 458.249 50.2885 457.995 52.7885C458.114 50.4568 458.843 48.1973 460.11 46.2363C458.695 46.5028 457.388 47.1786 456.353 48.18C456.353 48.18 456.738 45.5769 460.715 45.3503C460.715 45.3503 462.741 42.555 463.283 42.3901C463.283 42.3901 459.327 42.0536 456.923 43.1182C456.923 43.1182 459.039 40.6662 464.004 41.7445L466.752 39.478C466.752 39.478 461.539 38.7912 459.334 39.5536C459.334 39.5536 461.875 37.3833 467.493 38.9629L470.522 37.1566C470.522 37.1566 466.079 36.2019 463.434 36.5453C463.434 36.5453 466.223 35.0412 471.408 36.669L473.565 35.7006C473.565 35.7006 470.316 35.0618 469.361 34.9588C468.407 34.8558 468.359 34.5948 468.359 34.5948C470.421 34.2562 472.536 34.4938 474.471 35.2816C474.471 35.2816 479.128 33.6127 479.046 33.3242Z" fill="#BB6BD9"/>
<path opacity="0.1" d="M581.456 499.609C591.671 499.609 599.952 498.21 599.952 496.484C599.952 494.758 591.671 493.359 581.456 493.359C571.241 493.359 562.96 494.758 562.96 496.484C562.96 498.21 571.241 499.609 581.456 499.609Z" fill="#BB6BD9"/>
<path opacity="0.1" d="M18.4959 453.091C28.7109 453.091 36.9918 451.692 36.9918 449.966C36.9918 448.24 28.7109 446.841 18.4959 446.841C8.28089 446.841 0 448.24 0 449.966C0 451.692 8.28089 453.091 18.4959 453.091Z" fill="#BB6BD9"/>
<path opacity="0.1" d="M568.585 439.08C578.8 439.08 587.081 437.681 587.081 435.955C587.081 434.229 578.8 432.83 568.585 432.83C558.37 432.83 550.089 434.229 550.089 435.955C550.089 437.681 558.37 439.08 568.585 439.08Z" fill="#BB6BD9"/>
<path opacity="0.1" d="M90.0344 469.856C100.249 469.856 108.53 468.457 108.53 466.731C108.53 465.005 100.249 463.606 90.0344 463.606C79.8193 463.606 71.5385 465.005 71.5385 466.731C71.5385 468.457 79.8193 469.856 90.0344 469.856Z" fill="#BB6BD9"/>
<path opacity="0.1" d="M486.14 472.542C496.355 472.542 504.636 471.142 504.636 469.417C504.636 467.691 496.355 466.292 486.14 466.292C475.925 466.292 467.645 467.691 467.645 469.417C467.645 471.142 475.925 472.542 486.14 472.542Z" fill="#BB6BD9"/>
<path d="M540.976 534.643C556.228 534.643 568.592 532.552 568.592 529.973C568.592 527.394 556.228 525.302 540.976 525.302C525.723 525.302 513.359 527.394 513.359 529.973C513.359 532.552 525.723 534.643 540.976 534.643Z" fill="#BB6BD9"/>
<path d="M552.391 522.335C553.649 521.309 554.566 519.925 555.021 518.366C555.364 516.786 554.691 514.932 553.18 514.32C551.491 513.675 549.684 514.842 548.318 516.024C546.951 517.205 545.378 518.558 543.586 518.311C544.508 517.475 545.199 516.414 545.59 515.232C545.981 514.05 546.059 512.787 545.818 511.566C545.737 511.06 545.521 510.586 545.193 510.193C544.259 509.19 542.555 509.622 541.436 510.412C537.864 512.926 536.869 517.775 536.848 522.143C536.491 520.563 536.793 518.922 536.779 517.335C536.765 515.749 536.333 513.901 534.966 513.063C534.123 512.61 533.176 512.385 532.219 512.411C530.612 512.356 528.826 512.514 527.734 513.688C526.36 515.144 526.724 517.596 527.906 519.183C529.087 520.769 530.893 521.793 532.555 522.905C533.887 523.696 535.021 524.779 535.873 526.072C535.977 526.249 536.06 526.438 536.12 526.635H546.189C548.44 525.487 550.526 524.041 552.391 522.335Z" fill="#BB6BD9"/>
<path d="M90.9891 389.918C90.9891 389.918 94.7665 394.849 89.2514 402.281C83.7363 409.712 79.1896 416.017 81.0097 420.66C81.0097 420.66 89.3338 406.827 96.1196 406.635C102.905 406.443 98.441 398.256 90.9891 389.918Z" fill="#BB6BD9"/>
<path opacity="0.1" d="M90.989 389.918C91.3195 390.393 91.5786 390.913 91.7583 391.463C98.3654 399.224 101.889 406.47 95.5357 406.656C89.6223 406.82 82.5275 417.397 80.8242 420.069C80.8802 420.276 80.9467 420.48 81.0234 420.68C81.0234 420.68 89.3475 406.848 96.1333 406.656C102.919 406.463 98.4409 398.256 90.989 389.918Z" fill="black"/>
<path d="M98.0014 396.223C98.0014 397.96 97.8091 399.368 97.5687 399.368C97.3283 399.368 97.136 397.995 97.136 396.223C97.136 394.451 97.3764 395.302 97.6168 395.302C97.8572 395.302 98.0014 394.485 98.0014 396.223Z" fill="#FFD037"/>
<path d="M100.412 398.297C98.8874 399.128 97.555 399.629 97.4451 399.423C97.3352 399.217 98.4684 398.366 99.9932 397.535C101.518 396.704 100.92 397.308 101.03 397.535C101.14 397.761 101.937 397.473 100.412 398.297Z" fill="#FFD037"/>
<path d="M71.0646 389.918C71.0646 389.918 67.2871 394.849 72.8022 402.281C78.3173 409.712 82.8641 416.017 81.044 420.66C81.044 420.66 72.7267 406.827 65.9341 406.635C59.1415 406.443 63.6127 398.256 71.0646 389.918Z" fill="#BB6BD9"/>
<path opacity="0.1" d="M71.0646 389.918C70.7333 390.393 70.4719 390.914 70.2885 391.463C63.6813 399.224 60.1648 406.47 66.511 406.656C72.4313 406.82 79.5261 417.397 81.2294 420.069C81.1742 420.277 81.1054 420.481 81.0234 420.68C81.0234 420.68 72.7061 406.848 65.9135 406.656C59.1209 406.463 63.6126 398.256 71.0646 389.918Z" fill="black"/>
<path d="M64.0453 396.223C64.0453 397.96 64.2445 399.368 64.4849 399.368C64.7253 399.368 64.9176 397.995 64.9176 396.223C64.9176 394.451 64.6772 395.302 64.4368 395.302C64.1965 395.302 64.0453 394.485 64.0453 396.223Z" fill="#FFD037"/>
<path d="M61.6484 398.297C63.1731 399.128 64.4987 399.629 64.6154 399.423C64.7322 399.217 63.5852 398.366 62.0605 397.535C60.5357 396.704 61.1401 397.308 61.0234 397.535C60.9066 397.761 60.1168 397.473 61.6484 398.297Z" fill="#FFD037"/>
<path d="M65.2473 420.055C65.2473 420.055 75.7967 419.732 78.9835 417.466C82.1703 415.199 95.2129 412.5 95.9959 416.134C96.7789 419.767 111.854 434.19 99.9451 434.286C88.0357 434.382 72.2665 432.432 69.0934 430.495C65.9203 428.558 65.2473 420.055 65.2473 420.055Z" fill="#A8A8A8"/>
<path opacity="0.2" d="M100.151 433.022C88.2418 433.118 72.4725 431.168 69.2995 429.231C66.8888 427.761 65.9203 422.48 65.5975 420.042H65.2473C65.2473 420.042 65.9341 428.551 69.0865 430.481C72.239 432.411 88.0289 434.368 99.9382 434.272C103.372 434.272 104.56 433.022 104.499 431.209C104.018 432.315 102.706 433.002 100.151 433.022Z" fill="black"/>
</g>
<defs>
<linearGradient id="paint0_linear" x1="224.341" y1="525.296" x2="224.341" y2="3.65062e-06" gradientUnits="userSpaceOnUse">
<stop stop-color="#808080" stop-opacity="0.25"/>
<stop offset="0.54" stop-color="#808080" stop-opacity="0.12"/>
<stop offset="1" stop-color="#808080" stop-opacity="0.1"/>
</linearGradient>
<clipPath id="clip0">
<rect width="599.952" height="550.44" fill="white"/>
</clipPath>
</defs>
</svg>
