<svg width="75" height="48" viewBox="0 0 75 48" fill="none" xmlns="http://www.w3.org/2000/svg">
<path d="M26.8016 23.2981L12.6643 15.3262L17.5779 6.70926L31.7183 14.6765L26.8016 23.2981ZM55.0179 30.6524L31.1301 17.1971L28.674 21.5102L52.5588 34.9671L55.0179 30.6524ZM57.9179 32.2883L55.4541 36.5983L67.7729 43.5318L70.2366 39.2264L57.9179 32.2883ZM54.6001 36.5983C54.4112 36.9347 53.8951 37.0145 53.4466 36.7688C52.9996 36.5169 52.8015 36.0392 52.9919 35.6982L55.8719 30.6524C56.0701 30.3099 56.5862 30.227 57.0301 30.4819C57.4709 30.7338 57.6706 31.2223 57.4801 31.5648L54.6001 36.5983ZM72.7741 39.3616C72.2997 39.0983 71.7635 38.9668 71.2212 38.9806L68.0708 44.4979C68.3243 44.9603 68.7021 45.3642 69.1998 45.6346C70.5883 46.421 72.3348 45.9679 73.0982 44.6331L73.9061 43.2046C74.671 41.8606 74.1672 40.148 72.7741 39.3616ZM33.0854 13.0161C32.9964 13.1742 32.8771 13.3132 32.7343 13.4251C32.5916 13.5371 32.4282 13.6198 32.2534 13.6686C32.0787 13.7174 31.8961 13.7313 31.7159 13.7095C31.5358 13.6876 31.3618 13.6305 31.2038 13.5414L18.8298 6.56488C18.6714 6.47653 18.5322 6.35763 18.4201 6.21507C18.3081 6.07251 18.2255 5.90912 18.177 5.73438C18.1286 5.55965 18.1153 5.37703 18.138 5.19713C18.1606 5.01723 18.2188 4.84361 18.3091 4.68635C18.4924 4.36864 18.7939 4.13637 19.1479 4.04025C19.5019 3.94412 19.8795 3.99197 20.1983 4.17333L32.5693 11.1406C32.7271 11.2291 32.8659 11.348 32.9774 11.4904C33.089 11.6329 33.1711 11.7961 33.2191 11.9705C33.2672 12.145 33.28 12.3272 33.2571 12.5067C33.2341 12.6862 33.1758 12.8593 33.0854 13.0161ZM34.8195 9.98709C34.6384 10.3057 34.3383 10.5396 33.9851 10.6375C33.6318 10.7354 33.2542 10.6893 32.9349 10.5093L20.5562 3.53435C20.3983 3.44679 20.2594 3.32864 20.1477 3.18681C20.0359 3.04497 19.9535 2.88229 19.9053 2.70827C19.8571 2.53424 19.8441 2.35236 19.867 2.17324C19.8899 1.99413 19.9482 1.82136 20.0386 1.66504C20.1279 1.50622 20.2477 1.36661 20.3911 1.25424C20.5345 1.14188 20.6988 1.05898 20.8743 1.0103C21.0499 0.961623 21.2334 0.948135 21.4142 0.970611C21.595 0.993086 21.7696 1.05108 21.9279 1.14126L34.3019 8.1101C34.4599 8.19856 34.5988 8.3175 34.7106 8.46004C34.8223 8.60258 34.9046 8.76588 34.9528 8.94047C35.0009 9.11507 35.0139 9.29748 34.9911 9.47714C34.9682 9.6568 34.9099 9.83013 34.8195 9.98709ZM24.3624 28.3331C24.1783 28.6495 23.877 28.8806 23.5238 28.9766C23.1705 29.0726 22.7936 29.0257 22.4747 28.8461L10.0915 21.8696C9.93355 21.7808 9.79476 21.6617 9.6831 21.519C9.57143 21.3763 9.4891 21.213 9.44084 21.0384C9.39259 20.8638 9.37936 20.6813 9.40192 20.5016C9.42448 20.3218 9.48238 20.1483 9.5723 19.9911C9.75729 19.6756 10.0586 19.4452 10.4115 19.3493C10.7644 19.2534 11.1408 19.2996 11.46 19.478L23.8371 26.4545C24.1559 26.634 24.3903 26.9327 24.4888 27.285C24.5873 27.6373 24.5419 28.0143 24.3624 28.3331ZM26.092 25.2933C26.0016 25.4519 25.8808 25.591 25.7365 25.7028C25.5923 25.8145 25.4273 25.8967 25.2512 25.9445C25.0751 25.9923 24.8912 26.0049 24.7102 25.9814C24.5293 25.958 24.3547 25.899 24.1966 25.8079L11.8225 18.8391C11.5052 18.6582 11.2723 18.3592 11.1747 18.0072C11.0772 17.6552 11.1229 17.2789 11.3018 16.9605C11.3922 16.8026 11.5128 16.664 11.6567 16.5526C11.8006 16.4413 11.9651 16.3594 12.1407 16.3116C12.3162 16.2638 12.4995 16.2511 12.68 16.2741C12.8605 16.2972 13.0347 16.3556 13.1926 16.446L25.5651 23.4148C25.7231 23.5035 25.862 23.6225 25.974 23.7649C26.086 23.9074 26.1688 24.0705 26.2177 24.2449C26.2666 24.4194 26.2807 24.6017 26.2591 24.7816C26.2376 24.9615 26.1808 25.1354 26.092 25.2933ZM5.32679 37.7027H27.1441V40.211H5.32679V37.7027ZM31.9088 42.9343C31.8401 42.5214 31.6273 42.1462 31.3081 41.8753C30.9889 41.6045 30.584 41.4556 30.1654 41.4551H2.31163C1.89286 41.455 1.48767 41.6037 1.16836 41.8746C0.84904 42.1455 0.636362 42.5211 0.568267 42.9343H0.536011V47.0416H31.9411V42.9343H31.9088Z" fill="#828282"/>
</svg>
