<svg width="48" height="48" viewBox="0 0 48 48" fill="none" xmlns="http://www.w3.org/2000/svg">
<path fill-rule="evenodd" clip-rule="evenodd" d="M24 10.2857C21.1543 10.2857 18.8571 7.98857 18.8571 5.14286C18.8571 2.29714 21.1543 0 24 0C26.8457 0 29.1429 2.29714 29.1429 5.14286C29.1429 7.98857 26.8457 10.2857 24 10.2857ZM48 30.8571C48 34.6629 44.9486 37.7143 41.1429 37.7143H37.7143C33.9086 37.7143 30.8571 34.6629 30.8571 30.8571L37.7143 17.1429H34.2857C32.4 17.1429 30.8571 15.6 30.8571 13.7143H27.4286V41.1429C28.8686 41.1429 30.8571 42.6857 30.8571 44.5714H34.2857C35.7257 44.5714 37.7143 46.1143 37.7143 48H10.2857C10.2857 46.1143 12.2743 44.5714 13.7143 44.5714H17.1429C17.1429 42.6857 19.1314 41.1429 20.5714 41.1429H20.6743L20.5714 13.7143H17.1429C17.1429 15.6 15.6 17.1429 13.7143 17.1429H10.2857L17.1429 30.8571C17.1429 34.6629 14.0914 37.7143 10.2857 37.7143H6.85714C3.05143 37.7143 0 34.6629 0 30.8571L6.85714 17.1429H3.42857V13.7143H13.7143C13.7143 11.8286 15.2571 10.2857 17.1429 10.2857H30.8571C32.7429 10.2857 34.2857 11.8286 34.2857 13.7143H44.5714V17.1429H41.1429L48 30.8571ZM8.57143 20.5714L3.42857 30.8571H13.7143L8.57143 20.5714ZM44.5714 30.8571L39.4286 20.5714L34.2857 30.8571H44.5714Z" fill="#828282"/>
</svg>
